<?xml version="1.0" encoding="utf-8"?>
<!-- Generator: Adobe Illustrator 16.0.0, SVG Export Plug-In . SVG Version: 6.00 Build 0)  -->
<!DOCTYPE svg PUBLIC "-//W3C//DTD SVG 1.1//EN" "http://www.w3.org/Graphics/SVG/1.1/DTD/svg11.dtd">
<svg version="1.1" xmlns="http://www.w3.org/2000/svg" xmlns:xlink="http://www.w3.org/1999/xlink" x="0px" y="0px" width="336px"
	 height="336px" viewBox="0 0 336 336" enable-background="new 0 0 336 336" xml:space="preserve">
<g id="Layer_2" display="none">
	<rect x="-138" y="-84" display="inline" fill-rule="evenodd" clip-rule="evenodd" fill="#333333" width="612" height="504"/>
</g>
<g id="Layer_3">
	<circle fill-rule="evenodd" clip-rule="evenodd" fill="#333333" cx="168" cy="168" r="168"/>
</g>
<g id="Layer_4">
	<g>
		<path fill-rule="evenodd" clip-rule="evenodd" fill="#FFFFFF" d="M84.232,275.786c-0.916-14.782-1.805-29.122-2.701-43.614
			c-3.781-0.401-6.932-0.735-10.995-1.166c3.48-52.063,16.378-99.324,58.958-133.693c-0.576-2.955-1.47-5.846-1.651-8.781
			c-0.604-9.778,5.881-17.502,15.485-18.778c9.779-1.3,18.377,5.003,20.156,14.774c1.652,9.063-4.207,18.683-13.598,20.188
			c-5.951,0.953-7.68,3.73-8.338,8.969c-0.746,5.938-2.143,11.793-3.233,17.688c-1.734,9.383,3.149,16.2,13.563,18.508
			c0.453-1.018,1.164-2.062,1.388-3.203c5.621-28.553,22.236-49.07,46.5-64.138c1.77-1.101,3.519-3.366,3.917-5.361
			c2.382-11.907,9.97-18.527,20.408-17.28c9.293,1.109,16.213,9.429,15.659,18.83c-0.627,10.615-8.036,16.74-20.543,17.006
			c-0.712,0.016-1.421,0.235-3.68,0.629c3.363,8.363,6.05,16.574,9.858,24.225c9.117,18.314,22.046,33.893,36.653,48.053
			c3.281,3.185,3.926,5.927,3.097,10.409c-5.511,29.712-10.556,59.508-15.894,89.251c-0.489,2.741-1.954,5.308-2.965,7.955
			c-1.025-0.334-2.051-0.668-3.076-1.002c1.793-10.203,3.539-20.414,5.394-30.605c3.349-18.425,6.343-36.93,10.362-55.21
			c1.55-7.044-0.709-10.772-6.932-14.067c-0.545,2.059-1.043,3.939-1.896,7.162c-1.397-2.153-2.918-3.536-2.651-4.238
			c2.839-7.467-2.877-10.659-7.031-14.633c-11.347-10.856-22.714-21.696-34.978-33.408c-8.306,12.597-18.234,23.895-16.04,40.389
			c3.92,29.466,7.992,58.914,11.593,88.418c0.715,5.859,2.244,9.216,8.681,9.668c2.013,0.141,3.853,2.781,5.771,4.276
			c-2.2,0.931-4.359,2.53-6.604,2.663c-6.211,0.369-12.457,0.127-19.45,0.127c-4.222-19.803-8.399-39.398-12.574-58.993
			c-0.65-0.015-1.298-0.029-1.945-0.044c-2.262,16.76-4.523,33.518-6.519,48.32c4.521,3.57,7.488,5.914,10.456,8.256
			c-3.785,0.824-7.538,2.029-11.365,2.369c-4.653,0.413-9.372,0.098-14.371,0.098c1.661-18.873,3.424-36.979,4.785-55.113
			c0.843-11.193,0.837-22.182-3.491-33.145c-2.665-6.75-2.408-14.654-3.326-21.082c-8.745-3.776-17.13-7.398-26.048-11.252
			c-4.566,9.854-6.115,21.081-5.037,32.1c1.254,12.817,4.857,25.391,7.072,38.133c1.644,9.459,2.65,19.027,4.029,28.533
			c1.18,8.137,4.506,14.139,13.924,14.87c1.867,0.146,3.555,2.612,5.326,4.007c-1.925,0.979-3.811,2.702-5.783,2.807
			c-6.681,0.353-13.393,0.135-19.277,0.135c-4.807-13.323-9.371-25.689-13.7-38.138c-1.349-3.879-2.812-6.3-7.751-6.111
			c-5.084,0.193-5.579,3.545-6.267,6.844c-1.423,6.823-2.451,13.729-3.709,20.587c-0.963,5.247,1.197,8.092,6.429,8.768
			c1.484,0.189,3.178,0.129,4.381,0.846c2.071,1.234,3.832,2.987,5.724,4.522c-2.228,0.892-4.418,2.425-6.688,2.555
			C97.496,276.021,91.263,275.786,84.232,275.786z"/>
	</g>
</g>
<g id="Layer_1" display="none">
	<g id="PiggyBank" display="inline">
		<path fill-rule="evenodd" clip-rule="evenodd" fill="#FFFFFF" d="M192.316,222.99c-14.416,3.133-28.657,2.846-42.837-1.088
			c-0.085,0.146-0.22,0.273-0.235,0.416c-0.5,4.873-3.473,7.625-7.911,8.931c-6.148,1.808-12.43,1.71-18.724,0.927
			c-1.212-0.15-2.415-0.379-3.803-0.601c0-0.664,0-1.292,0-1.919c0-7.699,0.029-15.397-0.043-23.096
			c-0.007-0.813-0.397-1.84-0.969-2.399c-5.132-5.016-9.476-10.612-12.552-17.104c-0.766-1.616-1.61-2.043-3.304-1.847
			c-2.075,0.24-4.193,0.193-6.286,0.107c-0.457-0.018-1.208-0.67-1.282-1.118c-2.126-12.93-4.184-25.87-6.29-39.045
			c1.113,0.054,2.131,0.072,3.144,0.159c3.251,0.277,6.503,0.557,9.749,0.888c0.994,0.102,1.558-0.087,1.948-1.15
			c3.666-9.969,9.787-18.214,17.856-25.045c0.9-0.763,1.185-1.449,0.993-2.663c-1.716-10.815-3.343-21.645-4.987-32.471
			c-0.051-0.336-0.006-0.687-0.006-1.176c5.253-0.29,10.345,0.388,15.366,1.805c7.603,2.146,13.069,7.18,17.862,13.131
			c0.95,1.18,1.944,2.353,2.69,3.659c0.721,1.265,1.57,1.363,2.87,1.108c19.267-3.781,37.852-1.772,55.426,7.164
			c14.676,7.462,25.795,18.441,31.906,34.022c0.298,0.759,0.57,1.528,0.863,2.289c0.037,0.1,0.129,0.18,0.375,0.507
			c3.062-0.876,6.22-1.781,9.696-2.776c-3.798-3.433-6.29-7.242-7.842-11.643c-1.28-3.629-1.906-7.354-0.905-11.155
			c1.65-6.261,8.139-8.672,13.527-5.058c3.026,2.031,4.84,5.011,6.127,8.314c2.074,5.314,2.831,10.778,1.38,16.931
			c2.738-0.771,5.25-1.394,7.704-2.192c2.537-0.827,4.775,0.48,4.71,2.925c-0.043,1.587-0.96,2.541-2.386,3.124
			c-4.566,1.87-9.29,2.579-14.205,2.076c-0.533-0.055-1.196-0.023-1.621,0.248c-4.301,2.743-9.045,4.237-14.012,5.145
			c-0.225,0.041-0.438,0.142-0.746,0.246c0,0.279-0.037,0.564,0.006,0.836c2.875,18.089-2.564,33.587-14.744,46.922
			c-2.152,2.358-4.695,4.356-6.967,6.613c-0.537,0.534-0.99,1.435-0.998,2.172c-0.078,6.472-0.045,12.947-0.045,19.421
			c0,0.633,0,1.268,0,2.036c-7.815,1.38-15.492,1.864-23.077-0.511C195.588,229.755,193.85,227.723,192.316,222.99z
			 M192.688,122.293c1.846,0.209,3.276-0.906,3.461-2.57c0.195-1.759-0.926-3.203-2.912-3.498
			c-10.482-1.554-20.992-1.793-31.52-0.503c-2.12,0.26-3.274,1.682-3.029,3.507c0.243,1.808,1.696,2.712,3.863,2.618
			c5.812-0.25,11.627-0.619,17.438-0.571C184.225,121.31,188.455,121.933,192.688,122.293z M259.661,140.656
			c0.335-1.543,0.772-2.697,0.802-3.861c0.093-3.653-0.589-7.193-2.211-10.485c-0.584-1.186-1.369-2.302-2.221-3.317
			c-0.832-0.991-1.885-1.832-3.342-1.292c-1.398,0.519-1.583,1.809-1.587,3.03c-0.006,1.327,0.055,2.7,0.384,3.975
			C252.709,133.444,254.92,137.564,259.661,140.656z M128.437,155.391c2.865-0.012,5.088-2.232,5.095-5.089
			c0.006-2.82-2.273-5.128-5.082-5.145c-2.917-0.019-5.178,2.274-5.151,5.222C123.326,153.256,125.526,155.403,128.437,155.391z"/>
		<path fill-rule="evenodd" clip-rule="evenodd" fill="#FFFFFF" d="M194.113,78.883c-0.006,8.743-7.046,15.751-15.787,15.721
			c-8.813-0.031-15.786-7.088-15.77-15.962c0.015-8.699,7.094-15.722,15.832-15.708C187.197,62.946,194.121,69.969,194.113,78.883z"
			/>
	</g>
</g>
</svg>
