<?xml version="1.0" encoding="utf-8"?>
<!-- Generator: Adobe Illustrator 19.0.0, SVG Export Plug-In . SVG Version: 6.00 Build 0)  -->
<svg version="1.1" id="svgroot" xmlns="http://www.w3.org/2000/svg" xmlns:xlink="http://www.w3.org/1999/xlink" x="0px" y="0px"
	 viewBox="-53 266.6 504.2 347" style="enable-background:new -53 266.6 504.2 347;" xml:space="preserve">
<style type="text/css">
	.st0{fill:none;stroke:#E6E7E8;stroke-width:6.7181;}
	.st1{fill:#FE6100;}
	.st2{fill:none;stroke:#00AFEF;stroke-width:6.7181;}
	.st3{fill:#00AFEF;}
	.st4{fill:url(#SVGID_1_);filter:url(#Adobe_OpacityMaskFilter);}
	.st5{mask:url(#id0);fill:#3B4B54;}
	.st6{fill:url(#SVGID_2_);filter:url(#Adobe_OpacityMaskFilter_1_);}
	.st7{mask:url(#id2);fill:#00AED0;}
	.st8{fill:url(#SVGID_3_);filter:url(#Adobe_OpacityMaskFilter_2_);}
	.st9{mask:url(#id4);fill:#00B098;}
	.st10{fill:url(#SVGID_4_);filter:url(#Adobe_OpacityMaskFilter_3_);}
	.st11{mask:url(#id8);fill:#00B098;}
	.st12{fill:url(#SVGID_5_);filter:url(#Adobe_OpacityMaskFilter_4_);}
	.st13{mask:url(#id10);fill:#00AED0;}
	.st14{fill:url(#SVGID_6_);filter:url(#Adobe_OpacityMaskFilter_5_);}
	.st15{mask:url(#id12);fill:#3B4B54;}
	.st16{fill:url(#SVGID_7_);filter:url(#Adobe_OpacityMaskFilter_6_);}
	.st17{mask:url(#id14);fill:#00B098;}
	.st18{fill:url(#SVGID_8_);filter:url(#Adobe_OpacityMaskFilter_7_);}
	.st19{mask:url(#id16);fill:#3B4B54;}
	.st20{fill:url(#SVGID_9_);filter:url(#Adobe_OpacityMaskFilter_8_);}
	.st21{mask:url(#id18);fill:#00AED0;}
	.st22{fill:#689F63;}
	.st23{fill:#4B4B4D;}
	.st24{clip-path:url(#SVGID_11_);}
	.st25{fill:url(#SVGID_12_);}
	.st26{fill:none;}
	.st27{clip-path:url(#SVGID_14_);}
	.st28{fill:url(#SVGID_15_);}
	.st29{clip-path:url(#SVGID_17_);}
	.st30{fill:url(#SVGID_18_);}
	.st31{fill:none;stroke:#6BBE50;stroke-width:3.36;}
	.st32{fill:#5596E6;stroke:#5596E6;stroke-width:3.36;}
	.st33{fill:#FFFFFF;}
	.st34{fill:#325C80;}
	.st35{fill:#244A61;}
	.st36{fill:#72C7E7;stroke:#72C7E7;stroke-width:3.36;}
	.st37{fill:#FDFEFF;}
	.st38{fill:#243672;}
	.st39{fill:#72C7E7;}
	.st40{fill:#F7E7E2;}
	.st41{fill:none;stroke:#72C7E7;}
	.st42{fill:#FEFEFE;}
	.st43{font-family:'LubalinGraphLT-Demi';}
	.st44{font-size:13.5147px;}
	.st45{fill:#606062;}
	.st46{font-family:'MyriadPro-Regular';}
	.st47{font-size:7.9994px;}
	.st48{enable-background:new    ;}
	.st49{fill:#BA8FF7;stroke:#BA8FF7;}
	.st50{fill:none;stroke:#FEFEFE;stroke-linecap:round;stroke-linejoin:round;}
	.st51{fill:none;stroke:#FEFEFE;stroke-linejoin:round;}
	.st52{fill:none;stroke:#FEFEFE;}
</style>
<line class="st0" x1="94.9" y1="370.6" x2="94.9" y2="431"/>
<line class="st0" x1="94.9" y1="267" x2="94.9" y2="331.3"/>
<line class="st0" x1="289.6" y1="267" x2="289.6" y2="331.3"/>
<line class="st0" x1="289.6" y1="369.7" x2="289.6" y2="438.5"/>
<line class="st0" x1="94.9" y1="462" x2="94.9" y2="526.6"/>
<line class="st0" x1="289.6" y1="462" x2="289.6" y2="533.1"/>
<circle id="userUra" class="st1" cx="17.6" cy="356.2" r="28.7"/>
<rect x="-52.5" y="267" class="st2" width="503.1" height="346.4"/>
<path class="st3" d="M-33,288.5h2.1c1,0,1.8-0.1,2.7-0.9c0.6-0.6,1-1.5,1-2.5c0-0.9-0.4-1.9-1.3-2.5c-0.7-0.6-1.6-0.7-2.5-0.7h-4.5
	v1h1.3v8.9h-1.3v1h3.9v-1H-33V288.5z M-33,287.4v-4.6h1.9c0.7,0,1.3,0,1.9,0.4c0.4,0.4,0.7,1.2,0.7,1.9c0,0.6-0.1,1.3-0.7,1.8
	c-0.6,0.4-1.2,0.4-1.9,0.4H-33z M-19.6,292.8h2.4v-0.9h-1.3v-7.1H-21v0.9h1.3v3.4c0,0.9,0,1.5-0.6,2.1c-0.3,0.6-1,0.9-1.8,0.9
	c-0.7,0.1-1.5-0.1-1.9-0.9c-0.4-0.6-0.4-1.3-0.4-2.1v-4.3h-2.4v0.9h1.3v3.9c0,0.9,0.1,1.5,0.3,1.9c0.6,0.9,1.6,1.6,2.8,1.6
	c1.2,0,2.2-0.6,2.7-1.6V292.8z M-14.4,281.8h-2.4v1h1.3v9.1h-1.3v0.9h2.4v-1.6c0.6,1.2,1.9,1.9,3.3,1.9c1.5,0,2.8-1,3.4-1.9
	c0.4-0.6,0.7-1.5,0.7-2.4c0-2.4-1.9-4.2-4.3-4.2c-1.3,0-2.5,0.7-3.1,1.9V281.8z M-11.3,292c-1.8,0-3.3-1.3-3.3-3.3
	c0-1.8,1.5-3.1,3.3-3.1S-8,287-8,288.8S-9.5,292-11.3,292z M-4.2,281.8h-2.4v1h1.3v9.1h-1.5v0.9h3.9v-0.9h-1.3V281.8z M0,284.7h-2.4
	v0.9h1.5v6.2h-1.5v0.9h3.9v-0.9H0V284.7z M0,281.8h-0.9v1.6H0V281.8z M9.7,284.7h-1v1c-0.7-0.7-1.6-1.2-2.8-1.2s-2.2,0.4-3,1.2
	c-0.7,0.9-1.2,1.9-1.2,3.1c0,2.2,1.9,4.2,4.2,4.2c1.8,0,3.4-1.2,4-2.8h-1c-0.6,1-1.6,1.8-2.8,1.8c-1.8,0-3.3-1.3-3.3-3.3
	c0-1.8,1.3-3.1,3.1-3.1c1.2,0,2.2,0.6,2.8,1.5h1V284.7z M25.3,282.8h1.5v-1h-4v1h1.5v8.2l-6.7-9.2H15v1h1.5v8.9H15v1h4v-1h-1.5v-8.2
	l6.7,9.2h1V282.8z M34.2,290.5c-0.6,1-1.6,1.6-2.7,1.6c-1.8,0-3.1-1.3-3.3-3.1h7.4v-0.3c0-2.4-1.9-4.2-4.3-4.2
	c-2.2,0-4.2,1.9-4.2,4.3c0,2.2,1.9,4.2,4.3,4.2c1.6,0,3.1-1,3.9-2.5H34.2z M28.3,288.3c0.1-1.5,1.6-2.8,3.1-2.8
	c1.6,0,3.1,1.2,3.4,2.8H28.3z M38.8,285.6h1.8v-0.9h-1.8v-3h-1v3h-1.6v0.9h1.6v7.1h3v-0.9h-1.9V285.6z M53.4,285.6h1.3v-0.9H51v0.9
	h1.3l-2.1,5.8l-1.8-6h-0.9l-2.1,6l-2.1-5.8h1.3v-0.9h-3.7v0.9h1.3l2.5,7.1h1l2.1-5.5l1.8,5.5h1L53.4,285.6z M59.4,293.1
	c2.4,0,4.2-1.9,4.2-4.3c0-2.4-1.9-4.2-4.2-4.2c-2.4,0-4.3,1.8-4.3,4.2C55.1,291.1,57,293.1,59.4,293.1z M59.4,292
	c-1.8,0-3.3-1.5-3.3-3.3s1.5-3.1,3.3-3.1s3.1,1.3,3.1,3.1S61.2,292,59.4,292z M66.5,284.7h-2.4v0.9h1.3v6.2h-1.3v0.9h3.7v-0.9h-1.3
	v-3.3c0-1.8,0.7-2.8,2.5-3v-0.9c-1.2,0-2.2,0.4-2.5,1.6V284.7z M72,281.8h-2.4v1H71v9.1h-1.3v0.9h3.6v-0.9H72v-3.3l3.3,3.3h-1.2v0.9
	h4v-0.9h-1.5l-3.4-3.4l3.1-2.8h1.3v-0.9h-3.9v0.9H75l-3,2.7V281.8z"/>
<path class="st3" d="M113.4,281.8v1h1.3v8.9h-1.3v1h4.8c1,0,1.8,0,2.5-0.7c0.6-0.6,0.9-1.3,0.9-2.2c0-1.3-0.7-2.4-1.9-2.8
	c0.9-0.4,1.5-1.5,1.5-2.5c0-0.9-0.4-1.6-1-2.1c-0.7-0.6-1.5-0.6-2.2-0.6H113.4z M115.9,286.5v-3.7h1.6c0.6,0,1.2,0,1.6,0.3
	c0.6,0.3,0.7,0.9,0.7,1.5s-0.1,1.2-0.6,1.5c-0.6,0.4-1,0.4-1.8,0.4H115.9z M115.9,291.7v-4.3h1.8c0.6,0,1.3,0,1.9,0.4
	c0.6,0.4,0.9,1.2,0.9,1.8c0,0.6-0.1,1.3-0.7,1.8c-0.6,0.3-1.3,0.3-2.1,0.3H115.9z M124.7,281.8h-2.4v1h1.3v9.1h-1.5v0.9h3.9v-0.9
	h-1.3V281.8z M133.6,292.8h2.4v-0.9h-1.3v-7.1h-2.4v0.9h1.3v3.4c0,0.9,0,1.5-0.6,2.1c-0.4,0.6-1,0.9-1.8,0.9
	c-0.7,0.1-1.5-0.1-1.9-0.9c-0.4-0.6-0.6-1.3-0.6-2.1v-4.3h-2.4v0.9h1.5v3.9c0,0.9,0.1,1.5,0.3,1.9c0.6,0.9,1.6,1.6,2.8,1.6
	c1.2,0,2.2-0.6,2.7-1.6V292.8z M143.3,290.5c-0.6,1-1.6,1.6-2.7,1.6c-1.8,0-3.1-1.3-3.3-3.1h7.4v-0.3c0-2.4-1.8-4.2-4.3-4.2
	c-2.2,0-4.2,1.9-4.2,4.3c0,2.2,1.9,4.2,4.3,4.2c1.6,0,3.1-1,3.9-2.5H143.3z M137.3,288.3c0.1-1.5,1.6-2.8,3.1-2.8
	c1.6,0,3.1,1.2,3.4,2.8H137.3z M147.8,284.7h-2.4v0.9h1.3v6.2h-1.3v0.9h3.7v-0.9h-1.3v-3.6c0-0.7,0-1.3,0.6-2.1
	c0.4-0.4,0.9-0.7,1.6-0.7c0.6,0,1.3,0.1,1.8,0.9c0.1,0.3,0.4,1,0.4,2.1v3.4h-1.3v0.9h3.7v-0.9h-1.3v-3.7c0-0.7,0-1.2,0.6-1.9
	c0.4-0.4,1-0.7,1.6-0.7c0.7,0,1.3,0.3,1.8,0.9c0.4,0.4,0.4,1.3,0.4,2.1v3.4h-1.3v0.9h3.7v-0.9h-1.3v-3.7c0-0.9,0-1.3-0.1-1.8
	c-0.6-1.2-1.3-1.8-3-1.8c-1.2,0-2.2,0.7-2.7,1.8l-0.1-0.3c-0.6-0.9-1.5-1.5-2.7-1.5c-1,0-1.9,0.6-2.4,1.5V284.7z M162.9,284.7h-2.4
	v0.9h1.3v6.2h-1.5v0.9h3.9v-0.9h-1.3V284.7z M162.9,281.8h-1v1.6h1V281.8z M169.5,288.8l2.2-3.1h1.3v-0.9h-3.7v0.9h1.2l-1.8,2.4
	l-1.6-2.4h1v-0.9h-3.6v0.9h1.2l2.4,3.1l-2.4,3.1h-1.3v0.9h3.7v-0.9h-1l1.6-2.4l1.8,2.4h-1v0.9h3.7v-0.9h-1.3L169.5,288.8z
	 M190.8,292.8v-1h-1.3l-4.3-10h-3v1h1.5l-4,8.9h-1.3v1h3.9v-1h-1.3l1.2-2.5h5.1l1,2.5h-1.3v1H190.8z M186.7,288.3h-4.5l2.2-5.4
	L186.7,288.3z M193.4,284.7h-2.4v0.9h1.3v9.2h-1.3v0.9h3.7v-0.9h-1.3v-3.7c0.6,1.2,1.9,1.9,3.3,1.9c2.4,0,4.2-1.9,4.2-4.3
	c0-1-0.3-1.8-0.6-2.2c-0.7-1.3-2.2-1.9-3.6-1.9c-1.3,0-2.5,0.6-3.3,1.9V284.7z M196.7,292c-1.9,0-3.3-1.5-3.3-3.3
	c0-1.9,1.5-3.1,3.3-3.3c1.6,0,3.3,1.3,3.3,3.3C200,290.5,198.5,292,196.7,292z M203.6,284.7h-2.4v0.9h1.5v9.2h-1.5v0.9h3.9v-0.9
	h-1.5v-3.7c0.7,1.2,2.1,1.9,3.4,1.9c2.4,0,4.2-1.9,4.2-4.3c0-1-0.3-1.8-0.7-2.2c-0.7-1.3-2.1-1.9-3.4-1.9c-1.5,0-2.7,0.6-3.4,1.9
	V284.7z M206.8,292c-1.8,0-3.3-1.5-3.3-3.3c0-1.9,1.6-3.1,3.4-3.3c1.6,0,3.1,1.3,3.1,3.3C210.1,290.5,208.6,292,206.8,292z
	 M214,281.8h-2.4v1h1.3v9.1h-1.5v0.9h3.9v-0.9H214V281.8z M218.1,284.7h-2.4v0.9h1.3v6.2h-1.3v0.9h3.7v-0.9h-1.3V284.7z
	 M218.1,281.8h-1v1.6h1V281.8z M227.7,284.7h-0.9v1c-0.7-0.7-1.6-1.2-2.8-1.2s-2.2,0.4-3,1.2c-0.7,0.9-1.2,1.9-1.2,3.1
	c0,2.2,1.9,4.2,4.2,4.2c1.8,0,3.4-1.2,4-2.8h-1.2c-0.4,1-1.5,1.8-2.7,1.8c-1.8,0-3.3-1.3-3.3-3.3c0-1.8,1.3-3.1,3.1-3.1
	c1.2,0,2.2,0.6,2.8,1.5h0.9V284.7z M235.9,292.8h2.4v-0.9h-1.3v-6.2h1.3v-0.9h-2.4v1.8c-0.6-1.3-1.8-1.9-3.3-1.9
	c-1.5,0-2.8,0.7-3.4,1.9c-0.4,0.6-0.7,1-0.7,2.2c0,0.9,0.3,1.6,0.6,2.4c0.7,1.2,2.1,1.9,3.6,1.9c1.5,0,2.7-0.7,3.3-1.9V292.8z
	 M232.7,285.6c1.8,0,3.3,1.3,3.3,3.1s-1.5,3.3-3.3,3.3s-3.3-1.5-3.3-3.3S230.9,285.6,232.7,285.6z M241.2,285.6h1.8v-0.9h-1.8v-3h-1
	v3h-1.6v0.9h1.6v7.1h3v-0.9h-1.9V285.6z M246,284.7h-2.4v0.9h1.3v6.2h-1.3v0.9h3.7v-0.9H246V284.7z M246,281.8h-1v1.6h1V281.8z
	 M251.8,293.1c2.4,0,4.3-1.9,4.3-4.3c0-2.4-1.9-4.2-4.3-4.2c-2.2,0-4.2,1.8-4.2,4.2C247.6,291.1,249.4,293.1,251.8,293.1z
	 M251.8,292c-1.8,0-3.1-1.5-3.1-3.3s1.3-3.1,3.1-3.1s3.3,1.3,3.3,3.1S253.6,292,251.8,292z M258.9,284.7h-2.4v0.9h1.3v6.2h-1.3v0.9
	h3.7v-0.9h-1.3v-3.4c0-0.7,0-1.5,0.6-2.1c0.4-0.4,1.2-0.7,1.8-0.7c0.9,0,1.8,0.1,2.2,0.9c0.3,0.6,0.3,1.3,0.3,2.1v3.3h-1.3v0.9h3.7
	v-0.9h-1.3v-3.7c0-0.9-0.3-1.6-0.4-2.1c-0.4-1-1.9-1.5-2.8-1.5c-1,0-2.2,0.6-2.7,1.5V284.7z M272.2,286.8v-2.1h-0.7v0.7
	c-0.4-0.6-1.2-0.9-1.9-0.9s-1.6,0.3-2.1,0.9c-0.3,0.3-0.4,0.7-0.4,1.3c0,0.7,0.3,1.3,0.9,1.8c0.6,0.3,1.2,0.4,1.9,0.6
	c0.9,0.1,1.8,0.3,1.8,1.5c0,0.9-0.9,1.5-1.8,1.5c-1,0-1.9-0.7-2.1-1.6H267v2.2h0.7v-0.9c0.6,0.7,1.3,1.2,2.4,1.2
	c0.9,0,1.9-0.4,2.2-1.2c0.3-0.4,0.4-0.7,0.4-1.3c0-0.7-0.4-1.3-1-1.8c-0.6-0.3-1.2-0.4-1.8-0.6c-0.9-0.1-1.8-0.4-1.8-1.3
	s0.7-1.5,1.5-1.5c0.4,0,0.9,0.1,1.2,0.4c0.3,0.1,0.6,0.6,0.6,1H272.2z"/>
<path class="st3" d="M307.3,281.9v1h1.3v9.1h-1.3v0.9h4.8c1,0,1.8,0,2.5-0.7c0.6-0.4,1-1.3,1-2.2c0-1.3-0.9-2.4-2.1-2.8
	c0.9-0.4,1.5-1.3,1.5-2.4c0-0.9-0.3-1.6-1-2.2c-0.6-0.4-1.3-0.6-2.2-0.6H307.3z M309.8,286.7V283h1.8c0.6,0,1,0,1.6,0.3
	c0.4,0.4,0.7,0.9,0.7,1.5c0,0.6-0.3,1.2-0.7,1.5c-0.6,0.4-1,0.4-1.8,0.4H309.8z M309.8,292v-4.3h1.8c0.7,0,1.3,0,1.9,0.4
	c0.6,0.3,0.9,1,0.9,1.6c0,0.7-0.1,1.5-0.7,1.8c-0.6,0.4-1.3,0.4-1.9,0.4H309.8z M318.6,281.9h-2.4v1h1.3v9.1h-1.5v0.9h3.9V292h-1.3
	V281.9z M327.5,292.9h2.4V292h-1.3v-7.1h-2.4v0.9h1.3v3.6c0,0.7,0,1.3-0.6,2.1c-0.3,0.4-0.9,0.7-1.8,0.7c-0.7,0.1-1.5-0.1-1.9-0.7
	c-0.4-0.7-0.4-1.5-0.4-2.2v-4.3h-2.4v0.9h1.3v3.9c0,0.9,0.1,1.5,0.4,1.9c0.4,0.9,1.5,1.6,2.7,1.6c1.2,0,2.2-0.6,2.7-1.6V292.9z
	 M337.3,290.7c-0.6,1-1.6,1.6-2.8,1.6c-1.6,0-3.1-1.3-3.3-3h7.4v-0.3c0-2.4-1.8-4.3-4.2-4.3s-4.3,1.9-4.3,4.3c0,2.2,1.9,4.2,4.3,4.2
	c1.6,0,3.1-1,3.9-2.5H337.3z M331.2,288.5c0.3-1.5,1.6-2.8,3.1-2.8c1.8,0,3.1,1.2,3.4,2.8H331.2z M341.7,284.9h-2.4v0.9h1.3v6.2
	h-1.3v0.9h3.7V292h-1.3v-3.6c0-0.7,0.1-1.3,0.6-1.9c0.4-0.6,0.9-0.7,1.6-0.7c0.6,0,1.3,0.1,1.8,0.7c0.3,0.3,0.4,1.2,0.4,2.1v3.4
	h-1.3v0.9h3.7V292h-1.3v-3.7c0-0.7,0-1.2,0.6-1.8c0.4-0.6,1.2-0.7,1.8-0.7c0.6,0,1.2,0.1,1.6,0.7c0.4,0.4,0.4,1.3,0.4,2.1v3.4h-1.3
	v0.9h3.7V292h-1.3v-3.6c0-0.9,0-1.3-0.1-1.9c-0.4-1-1.3-1.8-3-1.8c-1,0-2.2,0.7-2.7,1.8l-0.1-0.3c-0.6-0.9-1.5-1.5-2.5-1.5
	c-1.2,0-2.1,0.6-2.5,1.5V284.9z M356.8,284.9h-2.4v0.9h1.3v6.2h-1.3v0.9h3.7V292h-1.3V284.9z M356.8,281.9h-1v1.6h1V281.9z
	 M363.4,288.9l2.2-3.1h1.3v-0.9h-3.7v0.9h1.2l-1.6,2.4l-1.8-2.4h1v-0.9h-3.6v0.9h1.2l2.4,3.1l-2.2,3.1h-1.3v0.9h3.6V292h-1l1.8-2.4
	l1.6,2.4h-1v0.9h3.7V292h-1.3L363.4,288.9z M378.9,284.6v-2.7h-1v0.9c-0.3-0.7-1.3-1.2-2.1-1.2c-1,0-2.1,0.4-2.7,1.2
	c-0.3,0.4-0.6,1-0.6,1.8c0,0.9,0.3,1.8,1.2,2.4c0.6,0.4,1.3,0.6,2.1,0.7c1.2,0.3,2.5,0.7,2.5,2.2c0,1.3-1,2.2-2.4,2.2
	c-1.3,0-2.2-0.9-2.4-2.2h-0.9v3h0.9v-1c0.6,0.9,1.5,1.3,2.5,1.3c1.2,0,1.9-0.4,2.7-1.3c0.4-0.6,0.6-1.2,0.6-1.9c0-0.9-0.3-1.8-1-2.2
	c-0.6-0.6-1.3-0.7-2.1-1c-0.6,0-1.3-0.1-1.9-0.6c-0.4-0.3-0.7-0.9-0.7-1.5c0-1.2,1-1.9,2.2-1.9c1,0,1.9,0.7,2.1,1.9H378.9z
	 M387,290.7c-0.6,1-1.6,1.6-2.8,1.6c-1.6,0-3.1-1.3-3.1-3h7.3v-0.3c0-2.4-1.8-4.3-4.2-4.3c-2.4,0-4.2,1.9-4.2,4.3
	c0,2.2,1.8,4.2,4.2,4.2c1.6,0,3.3-1,3.9-2.5H387z M381.1,288.5c0.1-1.5,1.5-2.8,3.1-2.8s3,1.2,3.3,2.8H381.1z M391.4,284.9H389v0.9
	h1.3v6.2H389v0.9h3.7V292h-1.3v-3.3c0-1.8,0.9-2.8,2.7-3v-0.9c-1.2,0-2.2,0.4-2.7,1.6V284.9z M402.8,285.8h1.3v-0.9h-3.7v0.9h1.3
	l-2.5,6l-2.4-6h1.3v-0.9h-3.7v0.9h1.3l2.8,7.1h1.2L402.8,285.8z M406.8,284.9h-2.4v0.9h1.3v6.2h-1.3v0.9h3.7V292h-1.3V284.9z
	 M406.8,281.9h-1v1.6h1V281.9z M416.4,284.9h-0.9v1.2c-0.7-0.9-1.8-1.3-2.8-1.3c-1.2,0-2.2,0.4-3,1.3c-0.7,0.7-1.2,1.8-1.2,3
	c0,2.2,1.9,4.2,4.2,4.2c1.8,0,3.4-1,4-2.8h-1.2c-0.4,1.2-1.6,1.8-2.7,1.8c-1.9,0-3.3-1.3-3.3-3.1s1.3-3.3,3.1-3.3
	c1.2,0,2.2,0.6,2.8,1.5h0.9V284.9z M424.1,290.7c-0.6,1-1.6,1.6-2.8,1.6c-1.6,0-3.1-1.3-3.1-3h7.4v-0.3c0-2.4-1.9-4.3-4.3-4.3
	c-2.4,0-4.2,1.9-4.2,4.3c0,2.2,1.9,4.2,4.2,4.2c1.6,0,3.3-1,3.9-2.5H424.1z M418.1,288.5c0.1-1.5,1.5-2.8,3.1-2.8
	c1.6,0,3.1,1.2,3.3,2.8H418.1z M431.5,287v-2.1h-0.9v0.7c-0.3-0.6-1-0.9-1.8-0.9s-1.6,0.3-2.1,0.9c-0.4,0.4-0.4,0.9-0.4,1.3
	c0,0.7,0.3,1.3,0.9,1.8c0.6,0.3,1.2,0.4,1.8,0.6c0.9,0.1,1.9,0.4,1.9,1.5c0,0.9-0.9,1.5-1.8,1.5c-1,0-1.9-0.7-2.1-1.6h-0.9v2.2h0.9
	V292c0.4,0.7,1.3,1.2,2.2,1.2c1,0,2.1-0.4,2.4-1.2c0.1-0.4,0.4-0.7,0.4-1.3c0-0.7-0.4-1.3-1-1.6c-0.6-0.4-1.2-0.6-1.9-0.7
	s-1.8-0.3-1.8-1.3c0-0.9,0.9-1.3,1.6-1.3c0.4,0,0.9,0.1,1.2,0.3c0.3,0.3,0.4,0.6,0.4,1H431.5z"/>
<defs>
	<filter id="Adobe_OpacityMaskFilter" filterUnits="userSpaceOnUse" x="194.5" y="336.5" width="102.4" height="121">
		<feColorMatrix  type="matrix" values="1 0 0 0 0  0 1 0 0 0  0 0 1 0 0  0 0 0 1 0"/>
	</filter>
</defs>
<mask maskUnits="userSpaceOnUse" x="194.5" y="336.5" width="102.4" height="121" id="id0">
	
		<linearGradient id="SVGID_1_" gradientUnits="userSpaceOnUse" x1="3617.1438" y1="-1871.9127" x2="2041.2236" y2="-1862.4208" gradientTransform="matrix(0.1488 0 0 -0.1488 -90.2082 119.677)">
		<stop  offset="0" style="stop-color:#FFFFFF;stop-opacity:3.921570e-02"/>
		<stop  offset="1" style="stop-color:#FFFFFF;stop-opacity:3.137250e-02"/>
	</linearGradient>
	<rect x="194.5" y="336.5" class="st4" width="102.5" height="121"/>
</mask>
<path class="st5" d="M296.9,457.5c-1-0.9-2.2-1.6-3.4-2.5l-6.4-5.2l-5.7-6c-10.6-12.5-17.1-28.9-17.1-46.9c0-14.4,4-26.2,10-36.6
	c1.3-2.2,4.5-6.8,6.1-8.8c0.6-0.6,0.9-1,1.3-1.6l5.7-6l9.4-7.3c0-0.1,0.1-0.1,0.1-0.1h-67.6l-34.8,60.4l8.8,15.3
	c7.3,12.4,14.4,25.7,21.9,37.9c0.6,1,3.9,7.1,4.6,7.3H296.9z"/>
<defs>
	<filter id="Adobe_OpacityMaskFilter_1_" filterUnits="userSpaceOnUse" x="303.9" y="401.1" width="138.3" height="118.9">
		<feColorMatrix  type="matrix" values="1 0 0 0 0  0 1 0 0 0  0 0 1 0 0  0 0 0 1 0"/>
	</filter>
</defs>
<mask maskUnits="userSpaceOnUse" x="303.9" y="401.1" width="138.3" height="118.9" id="id2">
	
		<linearGradient id="SVGID_2_" gradientUnits="userSpaceOnUse" x1="3614.603" y1="-2293.7478" x2="2038.683" y2="-2284.2559" gradientTransform="matrix(0.1488 0 0 -0.1488 -90.2082 119.677)">
		<stop  offset="0" style="stop-color:#FFFFFF;stop-opacity:3.921570e-02"/>
		<stop  offset="1" style="stop-color:#FFFFFF;stop-opacity:3.137250e-02"/>
	</linearGradient>
	<rect x="303.9" y="401.1" class="st6" width="138.2" height="118.9"/>
</mask>
<path class="st7" d="M407.4,520c1.6-2.5,3-5.1,4.5-7.6c10.1-17.1,19.8-34.7,29.9-51.8c0.9-1.6-0.1-2.5-1-4l-32.3-55.5
	c-0.7,15-5.7,27.2-13.7,38.4l-8,9.4c-18.5,17.3-43.7,24.6-68.6,18c-2.7-0.7-5.1-1.5-7.4-2.5c-2.4-0.7-4.8-2.1-6.8-2.8
	c1,2.2,3,5.1,4.3,7.4l12.6,21.9c5.4,9.7,11.5,19.5,16.8,29.2H407.4z"/>
<defs>
	<filter id="Adobe_OpacityMaskFilter_2_" filterUnits="userSpaceOnUse" x="303.9" y="274" width="138.5" height="118.9">
		<feColorMatrix  type="matrix" values="1 0 0 0 0  0 1 0 0 0  0 0 1 0 0  0 0 0 1 0"/>
	</filter>
</defs>
<mask maskUnits="userSpaceOnUse" x="303.9" y="274" width="138.5" height="118.9" id="id4">
	
		<linearGradient id="SVGID_3_" gradientUnits="userSpaceOnUse" x1="3619.7466" y1="-1439.7726" x2="2043.8265" y2="-1430.2808" gradientTransform="matrix(0.1488 0 0 -0.1488 -90.2082 119.677)">
		<stop  offset="0" style="stop-color:#FFFFFF;stop-opacity:3.921570e-02"/>
		<stop  offset="1" style="stop-color:#FFFFFF;stop-opacity:3.137250e-02"/>
	</linearGradient>
	<rect x="303.9" y="274" class="st8" width="138.5" height="118.9"/>
</mask>
<path class="st9" d="M303.9,332.5c2.5-0.9,5.2-2.4,8-3.4c9.2-3.3,19.3-4.8,29.2-4.2c13.1,0.9,25.1,5.4,34.1,11.2
	c5.4,3.6,5.2,3.6,9.8,7.4c8.5,7.1,16.5,19.9,19.9,30.5c3.4,10.7,2.5,14.6,3.7,18.9l33.8-58.5l-35-60.4h-69.8
	c-2.8,4.8-5.7,9.8-8.5,14.6c-5.5,9.5-11.3,20.1-16.8,29.3L303.9,332.5z"/>
<defs>
	<filter id="Adobe_OpacityMaskFilter_3_" filterUnits="userSpaceOnUse" x="305.9" y="328.9" width="98.5" height="64.2">
		<feColorMatrix  type="matrix" values="1 0 0 0 0  0 1 0 0 0  0 0 1 0 0  0 0 0 1 0"/>
	</filter>
</defs>
<mask maskUnits="userSpaceOnUse" x="305.9" y="328.9" width="98.5" height="64.2" id="id8">
	
		<linearGradient id="SVGID_4_" gradientUnits="userSpaceOnUse" x1="3618.6279" y1="-1625.4886" x2="2042.7079" y2="-1615.9968" gradientTransform="matrix(0.1488 0 0 -0.1488 -90.2082 119.677)">
		<stop  offset="0" style="stop-color:#FFFFFF;stop-opacity:3.921570e-02"/>
		<stop  offset="1" style="stop-color:#FFFFFF;stop-opacity:3.137250e-02"/>
	</linearGradient>
	<rect x="305.9" y="328.9" class="st10" width="98.7" height="64.1"/>
</mask>
<path class="st11" d="M305.9,336.2c0.7,0.7,2.1,1.3,3,1.8l21.6,12.5c12.1,7.1,25,14.1,36.9,21.4c4.2,2.4,8.2,4.6,12.4,7
	c2.2,1.3,23.1,13.5,24.7,14.1c-1.5-35.4-30.8-61.8-63.4-64c-6.7-0.4-13.4,0-19.8,1.5C317.8,331.3,307.7,334.4,305.9,336.2z"/>
<defs>
	<filter id="Adobe_OpacityMaskFilter_4_" filterUnits="userSpaceOnUse" x="305.9" y="400.8" width="98.5" height="64.3">
		<feColorMatrix  type="matrix" values="1 0 0 0 0  0 1 0 0 0  0 0 1 0 0  0 0 0 1 0"/>
	</filter>
</defs>
<mask maskUnits="userSpaceOnUse" x="305.9" y="400.8" width="98.5" height="64.3" id="id10">
	
		<linearGradient id="SVGID_5_" gradientUnits="userSpaceOnUse" x1="3615.7158" y1="-2108.9712" x2="2039.7959" y2="-2099.4792" gradientTransform="matrix(0.1488 0 0 -0.1488 -90.2082 119.677)">
		<stop  offset="0" style="stop-color:#FFFFFF;stop-opacity:3.921570e-02"/>
		<stop  offset="1" style="stop-color:#FFFFFF;stop-opacity:3.137250e-02"/>
	</linearGradient>
	<rect x="305.9" y="400.8" class="st12" width="98.7" height="64.3"/>
</mask>
<path class="st13" d="M305.9,457.8c2.4,1.9,11.6,4.9,15.6,5.7c21.3,4.6,41.5-0.6,57.6-13.4c14.3-11.3,24.9-30.2,25.3-49.3
	l-49.3,28.4c-12.4,6.8-24.9,14.4-37.2,21.4c-2.1,1.2-3.9,2.2-6.1,3.6C310.7,454.8,306.5,457.1,305.9,457.8z"/>
<defs>
	<filter id="Adobe_OpacityMaskFilter_5_" filterUnits="userSpaceOnUse" x="268.3" y="340.1" width="30.9" height="113.8">
		<feColorMatrix  type="matrix" values="1 0 0 0 0  0 1 0 0 0  0 0 1 0 0  0 0 0 1 0"/>
	</filter>
</defs>
<mask maskUnits="userSpaceOnUse" x="268.3" y="340.1" width="30.9" height="113.8" id="id12">
	
		<linearGradient id="SVGID_6_" gradientUnits="userSpaceOnUse" x1="3617.1531" y1="-1870.3739" x2="2041.2329" y2="-1860.882" gradientTransform="matrix(0.1488 0 0 -0.1488 -90.2082 119.677)">
		<stop  offset="0" style="stop-color:#FFFFFF;stop-opacity:3.921570e-02"/>
		<stop  offset="1" style="stop-color:#FFFFFF;stop-opacity:3.137250e-02"/>
	</linearGradient>
	<rect x="268.3" y="340.1" class="st14" width="31" height="113.8"/>
</mask>
<path class="st15" d="M287,349.9c-0.9,0.9-1.5,1.8-2.5,3c-0.7,0.9-1.6,1.9-2.4,3c-4.8,6.2-8.8,14-11,22c-5.5,18.3-2.7,38.1,6.5,53.7
	c2.8,4.6,8.2,11.8,12.2,15.2c0.6,0.4,0.9,0.7,1.5,1.2c0.4,0.4,0.9,0.9,1.5,1.3c1.5,1.2,4.5,3.7,6.4,4.6l-0.1-113.8L287,349.9z"/>
<defs>
	<filter id="Adobe_OpacityMaskFilter_6_" filterUnits="userSpaceOnUse" x="307" y="341.7" width="92.3" height="53.3">
		<feColorMatrix  type="matrix" values="1 0 0 0 0  0 1 0 0 0  0 0 1 0 0  0 0 0 1 0"/>
	</filter>
</defs>
<mask maskUnits="userSpaceOnUse" x="307" y="341.7" width="92.3" height="53.3" id="id14">
	
		<linearGradient id="SVGID_7_" gradientUnits="userSpaceOnUse" x1="3618.3293" y1="-1675.0742" x2="2042.4093" y2="-1665.5823" gradientTransform="matrix(0.1488 0 0 -0.1488 -90.2082 119.677)">
		<stop  offset="0" style="stop-color:#FFFFFF;stop-opacity:3.921570e-02"/>
		<stop  offset="1" style="stop-color:#FFFFFF;stop-opacity:3.137250e-02"/>
	</linearGradient>
	<rect x="307" y="341.7" class="st16" width="92.3" height="53.3"/>
</mask>
<path class="st17" d="M307,341.7c7,12.8,15.6,27.1,23.1,40l7.6,13.2h61.6c-1.2-1-9.5-5.5-11.6-6.8c-11-6.5-23.4-13.5-34.7-19.9
	c-7.6-4.5-15.5-8.9-23.1-13.4C328.4,353.9,307.9,342,307,341.7z"/>
<defs>
	<filter id="Adobe_OpacityMaskFilter_7_" filterUnits="userSpaceOnUse" x="303.3" y="343.5" width="30.7" height="106.8">
		<feColorMatrix  type="matrix" values="1 0 0 0 0  0 1 0 0 0  0 0 1 0 0  0 0 0 1 0"/>
	</filter>
</defs>
<mask maskUnits="userSpaceOnUse" x="303.3" y="343.5" width="30.7" height="106.8" id="id16">
	
		<linearGradient id="SVGID_8_" gradientUnits="userSpaceOnUse" x1="3617.1675" y1="-1867.9615" x2="2041.2474" y2="-1858.4697" gradientTransform="matrix(0.1488 0 0 -0.1488 -90.2082 119.677)">
		<stop  offset="0" style="stop-color:#FFFFFF;stop-opacity:3.921570e-02"/>
		<stop  offset="1" style="stop-color:#FFFFFF;stop-opacity:3.137250e-02"/>
	</linearGradient>
	<rect x="303.3" y="343.5" class="st18" width="30.8" height="106.7"/>
</mask>
<path class="st19" d="M303.3,450.4c1.3-2.1,2.5-4.5,3.9-6.7c2.4-3.9,26.9-46.1,26.8-46.9l-15.3-26.6c-1.5-2.8-15.3-26.2-15.3-26.6
	V450.4z"/>
<defs>
	<filter id="Adobe_OpacityMaskFilter_8_" filterUnits="userSpaceOnUse" x="307" y="399" width="92.1" height="53.3">
		<feColorMatrix  type="matrix" values="1 0 0 0 0  0 1 0 0 0  0 0 1 0 0  0 0 0 1 0"/>
	</filter>
</defs>
<mask maskUnits="userSpaceOnUse" x="307" y="399" width="92.1" height="53.3" id="id18">
	
		<linearGradient id="SVGID_9_" gradientUnits="userSpaceOnUse" x1="3616.0105" y1="-2060.0603" x2="2040.0905" y2="-2050.5684" gradientTransform="matrix(0.1488 0 0 -0.1488 -90.2082 119.677)">
		<stop  offset="0" style="stop-color:#FFFFFF;stop-opacity:3.921570e-02"/>
		<stop  offset="1" style="stop-color:#FFFFFF;stop-opacity:3.137250e-02"/>
	</linearGradient>
	<rect x="307" y="399" class="st20" width="92.3" height="53.3"/>
</mask>
<path class="st21" d="M307,452.3c1.2-0.4,9.7-5.5,11.6-6.5c15.5-8.8,30.8-18,46.3-26.8c3.6-2.1,31.8-18.2,34.2-19.9h-61.5L307,452.3
	z"/>
<g id="_2960472575616">
	<g>
		<g>
			<path class="st22" d="M190.6,373.7c-0.1,0-0.4,0-0.6,0l-1.6-1c-0.3-0.1-0.1-0.3-0.1-0.3c0.4-0.1,0.4-0.1,0.9-0.3c0-0.1,0-0.1,0,0
				l1.3,0.7c0.1,0,0.1,0,0.3,0l5.2-3c0-0.1,0-0.1,0-0.1v-6.1v-0.1l-5.2-3c-0.1,0-0.1,0-0.3,0l-5.2,3v0.1v6.1c0,0,0,0,0,0.1l1.5,0.7
				c0.7,0.4,1.2,0,1.2-0.4v-6c0-0.1,0.1-0.3,0.1-0.3h0.7c0,0,0.1,0.1,0.1,0.3v6c0,1-0.6,1.6-1.6,1.6c-0.3,0-0.4,0-1.2-0.4l-1.3-0.7
				c-0.3-0.1-0.6-0.6-0.6-0.9v-6.1c0-0.4,0.3-0.7,0.6-0.9l5.2-3.1c0.4-0.1,0.9-0.1,1.2,0l5.2,3.1c0.3,0.1,0.6,0.4,0.6,0.9v6.1
				c0,0.3-0.3,0.7-0.6,0.9l-5.2,3C191.1,373.7,190.8,373.7,190.6,373.7L190.6,373.7z M190.6,373.7L190.6,373.7L190.6,373.7z"/>
		</g>
		<g>
			<path class="st22" d="M192.3,369.6c-2.4,0-2.8-1-2.8-1.9l0.1-0.1h0.7l0.1,0.1c0.1,0.7,0.4,1,1.8,1c1,0,1.5-0.1,1.5-0.7
				c0-0.4,0-0.6-1.8-0.7c-1.5-0.1-2.4-0.6-2.4-1.6s0.9-1.8,2.4-1.8c1.8,0,2.5,0.6,2.7,1.9c0,0,0,0,0,0.1h-0.1h-0.7c0,0,0,0-0.1-0.1
				c-0.1-0.7-0.4-0.9-1.6-0.9s-1.3,0.3-1.3,0.7c0,0.3,0.3,0.4,1.8,0.6c1.6,0.3,2.4,0.6,2.4,1.6c0,1.2-0.9,1.9-2.5,1.9V369.6z
				 M198.7,363.2h0.1c0.1,0,0.1,0,0.1-0.1s-0.1-0.1-0.1-0.1h-0.1V363.2z M198.4,362.7h0.4c0.1,0,0.4,0,0.4,0.3
				c0,0.1-0.1,0.3-0.3,0.3c0.1,0,0.1,0.1,0.1,0.3c0.1,0,0.1,0.1,0.1,0.3H199c0-0.1,0-0.4,0-0.4s0,0-0.1,0h-0.1v0.4h-0.3V362.7z
				 M197.9,363.3c0,0.4,0.4,0.9,0.9,0.9s0.9-0.4,0.9-0.9c0-0.4-0.4-0.9-0.9-0.9S197.9,362.9,197.9,363.3L197.9,363.3z M199.8,363.3
				c0,0.6-0.4,1-1,1s-1-0.4-1-1c0-0.6,0.4-1,1-1S199.8,362.7,199.8,363.3L199.8,363.3z M199.8,363.3L199.8,363.3L199.8,363.3z"/>
		</g>
		<path class="st23" d="M174.4,350.1c0-0.1-0.1-0.4-0.3-0.6l-5.7-3.1c0,0-0.1-0.1-0.3-0.1l0,0c-0.1,0-0.3,0.1-0.3,0.1l-5.7,3.1
			c-0.1,0.1-0.3,0.4-0.3,0.6v8.6c0,0.1,0.1,0.3,0.1,0.3c0.1,0.1,0.3,0.1,0.4,0l3.3-1.9c0.1,0,0.3-0.3,0.3-0.4v-4
			c0-0.3,0.1-0.6,0.3-0.6l1.5-0.9c0,0,0.1,0,0.3,0s0.3,0,0.3,0l1.5,0.9c0.1,0,0.3,0.3,0.3,0.6v4c0,0.1,0.1,0.4,0.3,0.4l3.3,1.9
			c0.1,0.1,0.3,0.1,0.4,0c0,0,0.1-0.1,0.1-0.3V350.1z M200.6,354.7L200.6,354.7l-1.9,1.2c-0.1,0-0.1,0-0.1,0l-1.9-1.2h-0.1v-2.2
			c0-0.1,0.1-0.1,0.1-0.1l1.9-1.2c0,0,0,0,0.1,0l1.9,1.2c0,0,0,0,0,0.1V354.7z M201.2,338.3c-0.1-0.1-0.3-0.1-0.4,0
			c0,0-0.1,0.1-0.1,0.3v8.5c0,0.1,0,0.1,0,0.1c-0.1,0.1-0.3,0.1-0.3,0l-1.3-0.7c-0.3-0.1-0.6-0.1-0.7,0l-5.5,3.3
			c-0.3,0-0.4,0.3-0.4,0.6v6.4c0,0.1,0.1,0.4,0.4,0.6l5.5,3.1c0.1,0.1,0.4,0.1,0.7,0l5.5-3.1c0.1-0.1,0.3-0.4,0.3-0.6v-16.1
			c0-0.3-0.1-0.4-0.3-0.6L201.2,338.3z M219.6,352.3c0.3-0.1,0.3-0.3,0.3-0.6v-1.5c0-0.3,0-0.4-0.3-0.6l-5.5-3.3c-0.1,0-0.4,0-0.7,0
			l-5.5,3.3c-0.1,0.1-0.3,0.3-0.3,0.6v6.4c0,0.3,0.1,0.4,0.3,0.6l5.5,3.1c0.3,0.1,0.4,0.1,0.7,0l3.3-1.8c0.1-0.1,0.1-0.1,0.1-0.3
			s0-0.3-0.1-0.3l-5.5-3.3c-0.1,0-0.3-0.1-0.3-0.3v-1.9c0-0.1,0.1-0.3,0.3-0.3l1.6-1c0.1,0,0.3,0,0.4,0l1.6,1c0.1,0,0.1,0.1,0.1,0.3
			v1.5c0,0.1,0.1,0.3,0.1,0.3c0.1,0.1,0.3,0.1,0.4,0L219.6,352.3z"/>
		<path class="st22" d="M213.7,352h0.1l1,0.6c0.1,0.1,0.1,0.1,0.1,0.1v1.2c0,0.1,0,0.1-0.1,0.1l-1,0.6h-0.1l-1-0.6c0,0,0,0,0-0.1
			v-1.2c0,0,0,0,0-0.1L213.7,352z"/>
		<g id="_2960472574912">
			<g>
				<defs>
					<path id="SVGID_10_" d="M182.6,346.6l-5.5,3.1c-0.1,0.1-0.3,0.3-0.3,0.6v6.4c0,0.1,0.1,0.4,0.3,0.6l5.5,3.1
						c0.3,0.1,0.4,0.1,0.7,0l5.5-3.1c0.1-0.1,0.3-0.4,0.3-0.6v-6.4c0-0.3-0.1-0.4-0.3-0.6l-5.5-3.1c-0.1-0.1-0.3-0.1-0.4-0.1
						C182.9,346.5,182.7,346.5,182.6,346.6L182.6,346.6z M182.6,346.6L182.6,346.6L182.6,346.6z"/>
				</defs>
				<clipPath id="SVGID_11_">
					<use xlink:href="#SVGID_10_"  style="overflow:visible;"/>
				</clipPath>
				<g class="st24">
					<g id="_2960470216080">
						
							<linearGradient id="SVGID_12_" gradientUnits="userSpaceOnUse" x1="1622.5118" y1="-1571.7245" x2="1623.3918" y2="-1571.7245" gradientTransform="matrix(0.1488 0 0 -0.1488 -90.2082 119.677)">
							<stop  offset="0" style="stop-color:#3E863D"/>
							<stop  offset="0.302" style="stop-color:#3E863D"/>
							<stop  offset="0.502" style="stop-color:#55934F"/>
							<stop  offset="0.8" style="stop-color:#5AAD45"/>
							<stop  offset="1" style="stop-color:#5AAD45"/>
						</linearGradient>
						<path class="st25" d="M194.8,349.2l-15.6-7.6l-8,16.4l15.6,7.6L194.8,349.2z"/>
					</g>
				</g>
			</g>
			<path class="st26" d="M182.6,346.6l-5.5,3.1c-0.1,0.1-0.3,0.3-0.3,0.6v6.4c0,0.1,0.1,0.4,0.3,0.6l5.5,3.1c0.3,0.1,0.4,0.1,0.7,0
				l5.5-3.1c0.1-0.1,0.3-0.4,0.3-0.6v-6.4c0-0.3-0.1-0.4-0.3-0.6l-5.5-3.1c-0.1-0.1-0.3-0.1-0.4-0.1
				C182.9,346.5,182.7,346.5,182.6,346.6 M182.6,346.6L182.6,346.6L182.6,346.6z"/>
			<g>
				<defs>
					<path id="SVGID_13_" d="M176.9,357.2c0,0,0.1,0,0.1,0.1l4.8,2.7l0.7,0.4c0.1,0.1,0.3,0.1,0.4,0.1c0,0,0,0,0.1,0l5.8-10.7
						c0-0.1-0.1-0.1-0.1-0.1l-3.6-2.1l-1.9-1c-0.1-0.1-0.1-0.1-0.1-0.1L176.9,357.2z"/>
				</defs>
				<clipPath id="SVGID_14_">
					<use xlink:href="#SVGID_13_"  style="overflow:visible;"/>
				</clipPath>
				<g class="st27">
					<g>
						
							<linearGradient id="SVGID_15_" gradientUnits="userSpaceOnUse" x1="1749.1619" y1="-1571.7245" x2="1921.1619" y2="-1571.7245" gradientTransform="matrix(0.1488 0 0 -0.1488 -90.2082 119.677)">
							<stop  offset="0" style="stop-color:#3E863D"/>
							<stop  offset="0.5686" style="stop-color:#3E863D"/>
							<stop  offset="0.7216" style="stop-color:#619857"/>
							<stop  offset="1" style="stop-color:#76AC64"/>
						</linearGradient>
						<path class="st28" d="M170.1,351.6l11,14.9l14.6-10.9l-11-14.9L170.1,351.6z"/>
					</g>
				</g>
			</g>
			<path class="st26" d="M176.9,357.2c0,0,0.1,0,0.1,0.1l4.8,2.7l0.7,0.4c0.1,0.1,0.3,0.1,0.4,0.1c0,0,0,0,0.1,0l5.8-10.7
				c0-0.1-0.1-0.1-0.1-0.1l-3.6-2.1l-1.9-1c-0.1-0.1-0.1-0.1-0.1-0.1L176.9,357.2z"/>
			<g>
				<defs>
					<path id="SVGID_16_" d="M182.9,346.5c-0.1,0-0.1,0-0.3,0.1l-5.5,3.1l6,10.9c0.1,0,0.1-0.1,0.3-0.1l5.5-3.1
						c0.1-0.1,0.3-0.3,0.3-0.4l-6.1-10.4C183,346.5,183,346.5,182.9,346.5L182.9,346.5L182.9,346.5z M182.9,346.5L182.9,346.5
						L182.9,346.5z"/>
				</defs>
				<clipPath id="SVGID_17_">
					<use xlink:href="#SVGID_16_"  style="overflow:visible;"/>
				</clipPath>
				<g class="st29">
					<g>
						
							<linearGradient id="SVGID_18_" gradientUnits="userSpaceOnUse" x1="1796.1619" y1="-1571.7245" x2="1877.1619" y2="-1571.7245" gradientTransform="matrix(0.1488 0 0 -0.1488 -90.2082 119.677)">
							<stop  offset="0" style="stop-color:#6BBF47"/>
							<stop  offset="0.1608" style="stop-color:#6BBF47"/>
							<stop  offset="0.3804" style="stop-color:#79B461"/>
							<stop  offset="0.4706" style="stop-color:#75AC64"/>
							<stop  offset="0.702" style="stop-color:#659E5A"/>
							<stop  offset="0.902" style="stop-color:#3E863D"/>
							<stop  offset="1" style="stop-color:#3E863D"/>
						</linearGradient>
						<path class="st30" d="M177.1,346.5v14.1h12.1v-14.1H177.1z"/>
					</g>
				</g>
			</g>
			<path class="st26" d="M182.9,346.5c-0.1,0-0.1,0-0.3,0.1l-5.5,3.1l6,10.9c0.1,0,0.1-0.1,0.3-0.1l5.5-3.1c0.1-0.1,0.3-0.3,0.3-0.4
				l-6.1-10.4C183,346.5,183,346.5,182.9,346.5L182.9,346.5 M182.9,346.5L182.9,346.5L182.9,346.5z"/>
		</g>
	</g>
	<polygon id="node1" class="st31" points="152.2,353.2 161.6,337.1 170.8,321 189.4,321 208,321 217.4,337.1 226.6,353.2 
		217.4,369.4 208,385.5 189.4,385.5 170.8,385.5 161.6,369.4 	"/>
</g>
<g>
	<polygon id="conversation" class="st32" points="339.6,353.2 348.8,337.1 358.2,321 376.6,321 395.2,321 404.6,337.1 413.8,353.2 
		404.6,369.4 395.2,385.5 376.6,385.5 358.2,385.5 348.8,369.4 	"/>
	<g>
		<path class="st33" d="M373.7,350.1L373.7,350.1c0,3.6,1.3,7,3.9,9.5l9.1,9.8v-6.5c7.1,0,12.8-5.8,12.8-12.8
			c0-7.1-5.7-12.9-12.8-12.9S373.7,342.9,373.7,350.1L373.7,350.1z"/>
		<path class="st34" d="M375.9,340.8c-2.4-2.4-5.7-3.7-9.1-3.7c-7.1,0-12.8,5.8-12.8,12.9c0,7,5.7,12.8,12.8,12.8v6.5l9.1-9.7
			c2.5-2.7,3.9-6.1,3.9-9.7l0,0c0,0,0,0,0-0.1C379.8,346.6,378.4,343.4,375.9,340.8L375.9,340.8z"/>
		<path class="st35" d="M373.7,350.1L373.7,350.1c0,3.1,1,6.2,3,8.8c2.1-2.5,3.1-5.7,3.1-8.8l0,0c0,0,0,0,0-0.1c0-3-1-6-3.1-8.2
			c-1.9,2.2-3,5.2-3,8.2C373.7,350.1,373.7,350.1,373.7,350.1L373.7,350.1z"/>
	</g>
</g>
<g>
	<polygon id="cloudant" class="st36" points="339.3,546.6 348.5,531.6 357.9,514.4 376.5,514.4 395.1,514.4 404.3,530.6 
		413.7,546.6 404.3,562.7 395.1,578.8 376.5,578.8 357.9,578.8 348.5,562.7 	"/>
	<g>
		<path class="st37" d="M356.8,544.4c0.3,3.3,5.2,4.9,8.2,5.4c2.4,0.3,5.1,0.1,7.6-0.4c1.9-0.4,0.7,0,3.7,0.9
			c3.7,1.2,8,1.2,11.8,0.4c3.4-0.7,7.3-2.8,8-5.7c0.6-4.5-3.4-5.4-4.6-6.2c0.6-1,1.6-1.9,1.2-3.9c-0.4-1.3-1.3-2.1-2.4-2.7
			c-6.5-4.3-21-1.8-21.6,4.5c-0.6,0.3-1.5,0.3-2.1,0.3c-1.9,0.3-4.2,1-5.8,1.8c-1,0.6-2.2,1.3-2.8,2.1
			C357,542,356.8,542.6,356.8,544.4z"/>
		<path class="st38" d="M396.1,545c-0.7,2.8-4.6,4.9-8,5.7c-3.7,0.7-8,0.7-11.8-0.4c-3-0.9-1.8-1.3-3.7-0.9
			c-2.5,0.6-5.2,0.7-7.6,0.4c-3-0.4-7.9-2.1-8.2-5.4c-0.3,0.6-0.1,8.5-0.1,9.8c0,1.8,0,2.8,0.9,4c2.7,3.7,10.7,4.2,15.3,3
			c1-0.3,0.7-0.1,1.6,0.3c5.5,2.5,13.2,2.1,18-0.6c1.2-0.7,2.1-1.5,2.7-2.4c1-1.3,0.9-2.1,0.9-3.9
			C396.1,553.5,396.3,545.5,396.1,545z"/>
	</g>
</g>
<g>
	<path class="st39" d="M134.7,352.6H59.5v-1h75.1V352.6z M134.2,349.5l4.9,2.5l-4.9,2.7V349.5z"/>
</g>
<g>
	<path class="st39" d="M320.8,345.8h-82.7v-1h82.7V345.8z M320.4,342.6l4.9,2.5l-4.9,2.7V342.6z"/>
</g>
<path class="st40" d="M32.6,378.8c-4.3,3-9.7,4.6-15.2,4.6c-5.7,0-10.9-1.6-15.3-4.6l15.2-2.4L32.6,378.8z"/>
<g>
	<path class="st40" d="M17.3,366.1c-7,0-12.6-5.7-12.6-12.6c0-7,5.7-12.6,12.6-12.6s12.6,5.7,12.6,12.6
		C29.9,360.5,24.2,366.1,17.3,366.1z M17.3,342L17.3,342c-6.2,0-11.3,5.1-11.3,11.5c0,6.2,5.1,11.3,11.3,11.3
		c6.4,0,11.5-5.1,11.5-11.3C28.7,347.1,23.7,342,17.3,342z"/>
	<path class="st40" d="M7.1,368.7h20.2c2.8,0,5.1,2.2,5.1,5.1v5.1H2.1v-5.1C2.1,370.9,4.3,368.7,7.1,368.7z"/>
</g>
<g>
	<path class="st39" d="M321.5,547.1h-69.7v-1h69.7V547.1z M321.2,544l4.1,2.5l-4.1,2.7V544z"/>
</g>
<line class="st41" x1="238.1" y1="359" x2="297.2" y2="359"/>
<g>
	<path class="st39" d="M320.8,439.1h-23.7v-1h23.7V439.1z M320.4,435.9l4.9,2.5l-4.9,2.7V435.9z"/>
</g>
<line class="st41" x1="297.2" y1="438.5" x2="297.2" y2="359.1"/>
<circle class="st39" cx="95.4" cy="352" r="6.7"/>
<text transform="matrix(1 0 0 1 91.3621 356.9116)" class="st42 st43 st44">1</text>
<circle class="st39" cx="289.6" cy="345.6" r="6.7"/>
<text transform="matrix(1 0 0 1 285.7068 350.5131)" class="st42 st43 st44">2</text>
<circle class="st39" cx="308.6" cy="438.5" r="6.7"/>
<text transform="matrix(1 0 0 1 304.754 443.3693)" class="st42 st43 st44">3</text>
<text transform="matrix(1 0 0 1 -5.625 395.4531)" class="st45 st46 st47">Analyst / User</text>
<text transform="matrix(1 0 0 1 156.1775 395.4531)" class="st48"><tspan x="0" y="0" class="st45 st46 st47">Web Application &amp;</tspan><tspan x="9.8" y="9.6" class="st45 st46 st47">Web Crawler</tspan></text>
<text transform="matrix(1 0 0 1 345.6768 395.4531)" class="st45 st46 st47">Conversation API</text>
<text transform="matrix(1 0 0 1 353.0428 589.9052)" class="st45 st46 st47">Cloudant DB</text>
<text transform="matrix(1 0 0 1 239.1294 352.2986)" class="st3 st46 st47">Orchestrator</text>
<script>
	document.getElementById(&quot;svgroot&quot;).addEventListener(&quot;mouseover&quot;, sendClickToParentDocument, false);        
        function sendClickToParentDocument(evt)  {
            // SVGElementInstance objects aren&apos;t normal DOM nodes, so fetch the corresponding &apos;use&apos; element instead
            var target = evt.target;
            if(target.correspondingUseElement)
                target = target.correspondingUseElement;
      
      // call a method in the parent document if it exists
      if (window.parent.svgElementClicked)
                window.parent.svgElementClicked(target, "tax");
            else
                return; //alert(&quot;You clicked &apos;&quot; + target.id + &quot;&apos; which is a &quot; + target.nodeName + &quot; element&quot;);
        }
	</script>
<g>
	<polygon id="nluNode" class="st49" points="336.9,452.3 346.6,435.5 356.4,418.6 375.9,418.6 395.4,418.6 405.1,435.5 414.8,452.3 405.1,469.2 
		395.4,486 375.9,486 356.4,486 346.6,469.2 	"/>
	<g>
		<g>
			<g>
				<g>
					<line class="st50" x1="361.9" y1="464.7" x2="371.5" y2="464.7"/>
				</g>
				<g>
					<line class="st50" x1="361.9" y1="460.4" x2="371.5" y2="460.4"/>
				</g>
				<g>
					<line class="st50" x1="361.9" y1="455.8" x2="371.5" y2="455.8"/>
				</g>
			</g>
			<g>
				<polygon class="st51" points="374.5,468.9 358.9,468.9 358.9,451.7 374.5,451.7 				"/>
			</g>
		</g>
		<path class="st42" d="M374,439.9L374,439.9l-4.1-4.2c-0.1-0.1-0.2-0.1-0.3-0.1c-0.3,0-0.5,0.2-0.5,0.5c0,0.1,0.1,0.2,0.1,0.3
			l3.3,3.3h-8.5c-1.4,0-2.6,1.2-2.6,2.6l0,0v5.9c0,0.3,0.2,0.4,0.4,0.4c0.3,0,0.5-0.2,0.5-0.4v-5.9l0,0c0-0.9,0.8-1.7,1.7-1.7h8.5
			l-3.3,3.3c-0.1,0.1-0.1,0.2-0.1,0.3c0,0.3,0.2,0.5,0.5,0.5c0.1,0,0.2-0.1,0.3-0.1l4.1-4.1v-0.1c0-0.1,0-0.1,0.1-0.1
			c0-0.1,0-0.1,0-0.2c0-0.1,0-0.1,0-0.2C374,440,374,439.9,374,439.9L374,439.9z"/>
		<path class="st52" d="M378.4,441.8h7.1c0.2,0,0.4-0.2,0.4-0.5v-2.7c0-0.3-0.2-0.4-0.4-0.4l0,0h-7.1c-0.3,0-0.4,0.2-0.4,0.4v2.7
			l0,0C378,441.6,378.2,441.8,378.4,441.8L378.4,441.8z"/>
		<path class="st52" d="M385.9,457.7v-2.6c0,0,0,0,0-0.1c0-0.2-0.2-0.4-0.4-0.4h-7.1c-0.3,0-0.4,0.2-0.4,0.4v2.7l0,0
			c0,0.3,0.2,0.4,0.4,0.5h7.1C385.7,458.1,385.9,457.9,385.9,457.7L385.9,457.7L385.9,457.7z"/>
		<path class="st52" d="M392.4,460.1H383c-0.3,0-0.4,0.2-0.4,0.5v2.6l0,0c0,0.3,0.2,0.5,0.4,0.5h9.3c0.3,0,0.4-0.2,0.4-0.5v-2.6l0,0
			C392.8,460.3,392.6,460.1,392.4,460.1L392.4,460.1z"/>
		<path class="st52" d="M392.4,449.2H383c-0.3,0-0.5,0.2-0.5,0.4v2.7l0,0c0,0.3,0.2,0.4,0.5,0.4h9.3l0,0c0.2,0,0.4-0.2,0.4-0.4v-2.7
			l0,0C392.8,449.4,392.6,449.2,392.4,449.2L392.4,449.2z"/>
		<path class="st52" d="M382.6,444.2v2.6l0,0c0,0.3,0.2,0.4,0.5,0.4h9.3c0.2,0,0.4-0.2,0.4-0.4v-2.6c0-0.1,0-0.1,0-0.1
			c0-0.2-0.2-0.4-0.4-0.4H383C382.8,443.7,382.6,443.9,382.6,444.2L382.6,444.2z"/>
	</g>
</g>
<polygon class="st45" points="309.1,494.3 309.1,488.6 310,488.6 313.2,493.1 313.2,488.6 314,488.6 314,494.3 313.2,494.3 
	309.9,489.8 309.9,494.3 "/>
<path id="_x31__11_" class="st45" d="M318.2,493.8c-0.3,0.2-0.5,0.4-0.8,0.5c-0.2,0.1-0.5,0.1-0.8,0.1c-0.5,0-0.9-0.1-1.2-0.3
	c-0.2-0.2-0.4-0.5-0.4-0.9c0-0.2,0.1-0.4,0.1-0.6c0.1-0.1,0.2-0.3,0.4-0.4c0.2-0.1,0.4-0.2,0.6-0.2c0.1,0,0.4-0.1,0.7-0.1
	c0.6,0,1.1-0.1,1.4-0.2c0-0.1,0-0.2,0-0.2c0-0.3-0.1-0.5-0.2-0.6c-0.2-0.2-0.5-0.2-0.9-0.2c-0.4,0-0.6,0-0.8,0.2
	c-0.2,0.1-0.3,0.3-0.4,0.6l-0.7-0.1c0.1-0.3,0.2-0.5,0.3-0.7c0.2-0.2,0.4-0.3,0.7-0.4c0.3-0.1,0.6-0.2,1-0.2s0.7,0.1,1,0.1
	c0.2,0.1,0.4,0.2,0.5,0.3c0.1,0.1,0.2,0.3,0.2,0.5c0,0.1,0.1,0.4,0.1,0.7v0.9c0,0.6,0,1.1,0,1.2c0,0.2,0.1,0.3,0.2,0.5h-0.8
	C318.3,494.2,318.3,494,318.2,493.8z M318.2,492.2c-0.3,0.1-0.7,0.2-1.3,0.3c-0.3,0-0.5,0.1-0.6,0.1c-0.1,0-0.2,0.1-0.3,0.2
	c-0.1,0.1-0.1,0.2-0.1,0.3c0,0.2,0.1,0.4,0.2,0.5c0.1,0.1,0.4,0.2,0.7,0.2c0.3,0,0.5-0.1,0.8-0.2c0.2-0.1,0.4-0.3,0.5-0.5
	c0.1-0.1,0.1-0.4,0.1-0.7V492.2z"/>
<path id="_x32__11_" class="st45" d="M321.8,493.7l0.1,0.6c-0.2,0-0.4,0-0.6,0c-0.3,0-0.5,0-0.6-0.1c-0.1-0.1-0.2-0.2-0.3-0.3
	s-0.1-0.4-0.1-0.8v-2.4h-0.6v-0.5h0.6v-1l0.8-0.4v1.5h0.7v0.5H321v2.4c0,0.2,0,0.3,0,0.4c0,0,0.1,0.1,0.1,0.1c0,0,0.1,0,0.2,0
	C321.5,493.7,321.6,493.7,321.8,493.7z"/>
<path id="_x33__11_" class="st45" d="M325.5,494.3v-0.6c-0.4,0.5-0.9,0.7-1.5,0.7c-0.2,0-0.5,0-0.7-0.1c-0.2-0.1-0.4-0.2-0.5-0.4
	s-0.2-0.3-0.2-0.5c0-0.1,0-0.4,0-0.7v-2.6h0.8v2.3c0,0.4,0,0.6,0,0.7c0,0.2,0.1,0.4,0.3,0.5c0.1,0.1,0.3,0.1,0.6,0.1
	c0.2,0,0.4,0,0.6-0.1c0.2-0.1,0.4-0.3,0.4-0.5c0.1-0.2,0.1-0.5,0.1-0.8v-2.2h0.8v4.2H325.5z"/>
<path id="_x34__11_" class="st45" d="M327.4,494.3v-4.2h0.7v0.6c0.2-0.3,0.3-0.5,0.5-0.6c0.1-0.1,0.3-0.1,0.5-0.1
	c0.3,0,0.5,0.1,0.8,0.2l-0.3,0.6c-0.2-0.1-0.4-0.1-0.6-0.1c-0.1,0-0.3,0-0.4,0.1c-0.1,0.1-0.2,0.2-0.3,0.4c-0.1,0.2-0.1,0.5-0.1,0.8
	v2.2H327.4z"/>
<path id="_x35__10_" class="st45" d="M333.2,493.8c-0.3,0.2-0.5,0.4-0.8,0.5c-0.2,0.1-0.5,0.1-0.9,0.1c-0.5,0-0.9-0.1-1.1-0.3
	c-0.2-0.2-0.4-0.5-0.4-0.9c0-0.2,0-0.4,0.1-0.6c0.1-0.1,0.2-0.3,0.4-0.4c0.2-0.1,0.4-0.2,0.6-0.2c0.1,0,0.4-0.1,0.7-0.1
	c0.6,0,1.1-0.1,1.3-0.2c0-0.1,0-0.2,0-0.2c0-0.3-0.1-0.5-0.2-0.6c-0.2-0.2-0.5-0.2-0.9-0.2c-0.4,0-0.6,0-0.8,0.2
	c-0.1,0.1-0.3,0.3-0.4,0.6l-0.7-0.1c0.1-0.3,0.2-0.5,0.3-0.7c0.2-0.2,0.4-0.3,0.7-0.4c0.3-0.1,0.6-0.2,1-0.2s0.7,0.1,1,0.1
	c0.2,0.1,0.4,0.2,0.5,0.3c0.1,0.1,0.2,0.3,0.2,0.5c0,0.1,0,0.4,0,0.7v0.9c0,0.6,0,1.1,0.1,1.2c0,0.2,0.1,0.3,0.2,0.5h-0.8
	C333.3,494.2,333.2,494,333.2,493.8z M333.2,492.2c-0.3,0.1-0.7,0.2-1.3,0.3c-0.3,0-0.5,0.1-0.7,0.1c-0.1,0-0.2,0.1-0.3,0.2
	c-0.1,0.1-0.1,0.2-0.1,0.3c0,0.2,0.1,0.4,0.2,0.5c0.1,0.1,0.4,0.2,0.7,0.2c0.3,0,0.5-0.1,0.8-0.2c0.2-0.1,0.4-0.3,0.5-0.5
	c0.1-0.1,0.1-0.4,0.1-0.7L333.2,492.2z"/>
<polygon id="_x36__10_" class="st45" points="335.1,494.3 335.1,488.6 335.9,488.6 335.9,494.3 "/>
<polygon id="_x37__8_" class="st45" points="339.5,494.3 339.5,488.6 340.3,488.6 340.3,493.6 343.4,493.6 343.4,494.3 "/>
<path id="_x38__8_" class="st45" d="M347.2,493.8c-0.3,0.2-0.6,0.4-0.8,0.5c-0.2,0.1-0.5,0.1-0.9,0.1c-0.5,0-0.9-0.1-1.1-0.3
	c-0.3-0.2-0.4-0.5-0.4-0.9c0-0.2,0-0.4,0.1-0.6c0.1-0.1,0.2-0.3,0.4-0.4c0.2-0.1,0.4-0.2,0.6-0.2c0.1,0,0.4-0.1,0.7-0.1
	c0.6,0,1.1-0.1,1.3-0.2c0-0.1,0-0.2,0-0.2c0-0.3-0.1-0.5-0.2-0.6c-0.2-0.2-0.5-0.2-0.9-0.2s-0.6,0-0.8,0.2c-0.2,0.1-0.3,0.3-0.4,0.6
	l-0.7-0.1c0.1-0.3,0.2-0.5,0.4-0.7c0.1-0.2,0.4-0.3,0.7-0.4c0.3-0.1,0.6-0.2,1-0.2s0.7,0.1,0.9,0.1c0.2,0.1,0.4,0.2,0.5,0.3
	c0.1,0.1,0.2,0.3,0.2,0.5c0,0.1,0,0.4,0,0.7v0.9c0,0.6,0,1.1,0,1.2c0,0.2,0.1,0.3,0.2,0.5h-0.8C347.3,494.2,347.3,494,347.2,493.8z
	 M347.2,492.2c-0.2,0.1-0.7,0.2-1.2,0.3c-0.3,0-0.5,0.1-0.7,0.1c-0.1,0-0.2,0.1-0.3,0.2c-0.1,0.1-0.1,0.2-0.1,0.3
	c0,0.2,0.1,0.4,0.2,0.5c0.2,0.1,0.4,0.2,0.7,0.2c0.3,0,0.6-0.1,0.8-0.2c0.2-0.1,0.4-0.3,0.5-0.5c0.1-0.1,0.1-0.4,0.1-0.7V492.2z"/>
<path id="_x39__8_" class="st45" d="M349.1,494.3v-4.2h0.7v0.6c0.3-0.4,0.8-0.7,1.4-0.7c0.3,0,0.5,0.1,0.7,0.1
	c0.2,0.1,0.4,0.2,0.5,0.4c0.1,0.1,0.2,0.3,0.2,0.5c0,0.1,0,0.4,0,0.7v2.6H352v-2.5c0-0.3,0-0.5-0.1-0.6c0-0.1-0.1-0.3-0.3-0.4
	c-0.1-0.1-0.3-0.1-0.5-0.1c-0.3,0-0.6,0.1-0.8,0.3c-0.2,0.2-0.4,0.5-0.4,1.1v2.3H349.1z"/>
<path id="_x31_0_6_" class="st45" d="M353.8,494.7l0.7,0.1c0,0.2,0.1,0.4,0.3,0.5c0.2,0.1,0.4,0.2,0.7,0.2c0.4,0,0.6-0.1,0.9-0.2
	c0.2-0.1,0.3-0.3,0.4-0.5c0-0.1,0-0.5,0-0.9c-0.3,0.4-0.7,0.5-1.2,0.5c-0.6,0-1.1-0.2-1.5-0.6c-0.3-0.4-0.5-0.9-0.5-1.5
	c0-0.4,0.1-0.8,0.2-1.1c0.1-0.4,0.4-0.6,0.7-0.8c0.3-0.2,0.6-0.3,1-0.3c0.5,0,1,0.2,1.3,0.6v-0.5h0.7v3.6c0,0.6-0.1,1.1-0.2,1.4
	c-0.1,0.2-0.4,0.5-0.7,0.6c-0.3,0.1-0.7,0.2-1.1,0.2c-0.6,0-1-0.1-1.3-0.3S353.8,495.1,353.8,494.7z M354.4,492.1
	c0,0.6,0.1,1,0.4,1.2c0.2,0.2,0.5,0.4,0.9,0.4c0.4,0,0.6-0.1,0.9-0.4c0.2-0.2,0.4-0.6,0.4-1.2c0-0.5-0.1-0.9-0.4-1.1
	c-0.2-0.3-0.5-0.4-0.9-0.4c-0.4,0-0.6,0.1-0.9,0.4C354.5,491.3,354.4,491.6,354.4,492.1z"/>
<path id="_x31_1_5_" class="st45" d="M361.7,494.3v-0.6c-0.4,0.5-0.9,0.7-1.5,0.7c-0.2,0-0.5,0-0.7-0.1c-0.2-0.1-0.4-0.2-0.5-0.4
	c-0.1-0.1-0.2-0.3-0.2-0.5c0-0.1,0-0.4,0-0.7v-2.6h0.8v2.3c0,0.4,0,0.6,0,0.7c0,0.2,0.1,0.4,0.3,0.5c0.1,0.1,0.3,0.1,0.6,0.1
	c0.2,0,0.4,0,0.6-0.1c0.2-0.1,0.3-0.3,0.4-0.5c0.1-0.2,0.1-0.5,0.1-0.8v-2.2h0.8v4.2H361.7z"/>
<path id="_x31_2_4_" class="st45" d="M366.6,493.8c-0.3,0.2-0.6,0.4-0.8,0.5c-0.3,0.1-0.6,0.1-0.9,0.1c-0.5,0-0.9-0.1-1.1-0.3
	c-0.3-0.2-0.4-0.5-0.4-0.9c0-0.2,0.1-0.4,0.2-0.6c0.1-0.1,0.2-0.3,0.4-0.4c0.1-0.1,0.4-0.2,0.5-0.2c0.2,0,0.4-0.1,0.7-0.1
	c0.6,0,1.1-0.1,1.4-0.2c0-0.1,0-0.2,0-0.2c0-0.3-0.1-0.5-0.2-0.6c-0.2-0.2-0.5-0.2-0.9-0.2c-0.4,0-0.6,0-0.8,0.2
	c-0.2,0.1-0.3,0.3-0.4,0.6l-0.7-0.1c0.1-0.3,0.2-0.5,0.4-0.7c0.1-0.2,0.4-0.3,0.7-0.4c0.3-0.1,0.6-0.2,1-0.2c0.4,0,0.7,0.1,1,0.1
	c0.2,0.1,0.4,0.2,0.5,0.3c0.1,0.1,0.2,0.3,0.2,0.5c0,0.1,0,0.4,0,0.7v0.9c0,0.6,0,1.1,0,1.2c0,0.2,0.1,0.3,0.2,0.5h-0.8
	C366.6,494.2,366.6,494,366.6,493.8z M366.5,492.2c-0.3,0.1-0.7,0.2-1.2,0.3c-0.3,0-0.5,0.1-0.7,0.1c-0.1,0-0.2,0.1-0.3,0.2
	c-0.1,0.1-0.1,0.2-0.1,0.3c0,0.2,0.1,0.4,0.2,0.5c0.1,0.1,0.4,0.2,0.7,0.2c0.3,0,0.6-0.1,0.8-0.2c0.2-0.1,0.4-0.3,0.5-0.5
	c0.1-0.1,0.1-0.4,0.1-0.7V492.2z"/>
<path id="_x31_3_3_" class="st45" d="M368.3,494.7l0.7,0.1c0,0.2,0.1,0.4,0.2,0.5c0.2,0.1,0.5,0.2,0.8,0.2c0.4,0,0.6-0.1,0.8-0.2
	c0.2-0.1,0.3-0.3,0.4-0.5c0-0.1,0.1-0.5,0.1-0.9c-0.4,0.4-0.8,0.5-1.3,0.5c-0.6,0-1.1-0.2-1.4-0.6c-0.4-0.4-0.5-0.9-0.5-1.5
	c0-0.4,0.1-0.8,0.2-1.1c0.1-0.4,0.4-0.6,0.7-0.8c0.3-0.2,0.6-0.3,1.1-0.3c0.5,0,1,0.2,1.3,0.6v-0.5h0.7v3.6c0,0.6-0.1,1.1-0.2,1.4
	c-0.1,0.2-0.4,0.5-0.7,0.6c-0.3,0.1-0.7,0.2-1.1,0.2c-0.5,0-1-0.1-1.3-0.3C368.4,495.4,368.3,495.1,368.3,494.7z M368.9,492.1
	c0,0.6,0.1,1,0.3,1.2c0.2,0.2,0.5,0.4,0.9,0.4c0.4,0,0.7-0.1,0.9-0.4c0.2-0.2,0.4-0.6,0.4-1.2c0-0.5-0.1-0.9-0.4-1.1
	c-0.2-0.3-0.5-0.4-0.9-0.4c-0.4,0-0.6,0.1-0.9,0.4C369.1,491.3,368.9,491.6,368.9,492.1z"/>
<path id="_x31_4_3_" class="st45" d="M376.4,493l0.8,0.1c-0.1,0.4-0.4,0.7-0.7,1c-0.4,0.2-0.8,0.4-1.3,0.4c-0.6,0-1.2-0.2-1.6-0.5
	c-0.4-0.4-0.6-0.9-0.6-1.6c0-0.7,0.2-1.2,0.6-1.6c0.4-0.4,0.9-0.6,1.5-0.6s1.1,0.2,1.5,0.6c0.4,0.4,0.6,0.9,0.6,1.6c0,0,0,0.1,0,0.2
	h-3.4c0,0.5,0.2,0.8,0.4,1.1c0.2,0.2,0.6,0.4,0.9,0.4c0.3,0,0.5-0.1,0.7-0.2C376.1,493.5,376.2,493.2,376.4,493z M373.8,491.8h2.5
	c0-0.4-0.1-0.6-0.3-0.8c-0.2-0.3-0.6-0.4-1-0.4c-0.4,0-0.6,0.1-0.9,0.3C374,491.2,373.9,491.5,373.8,491.8z"/>
<path id="_x31_5_2_" class="st45" d="M384.7,488.6h0.8v3.3c0,0.6-0.1,1-0.2,1.3c-0.1,0.4-0.4,0.6-0.7,0.9c-0.4,0.2-0.9,0.3-1.5,0.3
	s-1.1-0.1-1.5-0.3c-0.4-0.2-0.6-0.5-0.8-0.8c-0.1-0.4-0.2-0.8-0.2-1.4v-3.3h0.9v3.3c0,0.5,0,0.9,0.1,1.1c0.1,0.2,0.3,0.4,0.5,0.5
	c0.2,0.1,0.6,0.2,0.9,0.2c0.6,0,1-0.1,1.3-0.4c0.2-0.2,0.4-0.7,0.4-1.5V488.6z"/>
<path id="_x31_6_2_" class="st45" d="M386.8,494.3v-4.2h0.7v0.6c0.4-0.4,0.8-0.7,1.5-0.7c0.2,0,0.5,0.1,0.7,0.1
	c0.2,0.1,0.4,0.2,0.5,0.4c0.1,0.1,0.2,0.3,0.2,0.5c0,0.1,0,0.4,0,0.7v2.6h-0.7v-2.5c0-0.3,0-0.5-0.1-0.6c-0.1-0.1-0.2-0.3-0.3-0.4
	c-0.1-0.1-0.3-0.1-0.5-0.1c-0.3,0-0.6,0.1-0.8,0.3c-0.2,0.2-0.4,0.5-0.4,1.1v2.3H386.8z"/>
<path id="_x31_7_2_" class="st45" d="M394.5,494.3v-0.5c-0.3,0.4-0.7,0.6-1.2,0.6c-0.4,0-0.7-0.1-1-0.2c-0.3-0.2-0.5-0.5-0.7-0.8
	s-0.2-0.7-0.2-1.1c0-0.4,0.1-0.8,0.2-1.1c0.2-0.4,0.4-0.6,0.7-0.8c0.3-0.2,0.6-0.3,1-0.3c0.2,0,0.5,0.1,0.7,0.2
	c0.2,0.1,0.4,0.2,0.5,0.4v-2.1h0.7v5.7H394.5z M392.1,492.2c0,0.5,0.1,0.9,0.4,1.2c0.2,0.2,0.5,0.4,0.9,0.4c0.3,0,0.6-0.1,0.9-0.4
	c0.2-0.3,0.4-0.6,0.4-1.2c0-0.6-0.1-1-0.4-1.2c-0.2-0.2-0.5-0.4-0.9-0.4c-0.4,0-0.6,0.1-0.9,0.4
	C392.2,491.3,392.1,491.7,392.1,492.2z"/>
<path id="_x31_8_1_" class="st45" d="M399.5,493l0.8,0.1c-0.1,0.4-0.4,0.7-0.7,1c-0.4,0.2-0.8,0.4-1.3,0.4c-0.7,0-1.2-0.2-1.6-0.5
	c-0.4-0.4-0.6-0.9-0.6-1.6c0-0.7,0.2-1.2,0.6-1.6c0.4-0.4,0.9-0.6,1.5-0.6s1.1,0.2,1.5,0.6c0.4,0.4,0.6,0.9,0.6,1.6c0,0,0,0.1,0,0.2
	H397c0,0.5,0.2,0.8,0.4,1.1c0.2,0.2,0.6,0.4,1,0.4c0.2,0,0.5-0.1,0.7-0.2C399.3,493.5,399.4,493.2,399.5,493z M397.1,491.8h2.5
	c0-0.4-0.1-0.6-0.3-0.8c-0.2-0.3-0.6-0.4-0.9-0.4s-0.7,0.1-0.9,0.3C397.2,491.2,397.1,491.5,397.1,491.8z"/>
<path id="_x31_9" class="st45" d="M401.3,494.3v-4.2h0.7v0.6c0.2-0.3,0.3-0.5,0.5-0.6c0.2-0.1,0.3-0.1,0.5-0.1
	c0.2,0,0.5,0.1,0.8,0.2l-0.2,0.6c-0.2-0.1-0.4-0.1-0.6-0.1s-0.3,0-0.5,0.1c-0.1,0.1-0.2,0.2-0.3,0.4c-0.1,0.2-0.1,0.5-0.1,0.8v2.2
	H401.3z"/>
<path id="_x32_0" class="st45" d="M403.9,493.1l0.8-0.1c0,0.3,0.1,0.5,0.4,0.6c0.2,0.1,0.5,0.2,0.8,0.2s0.6-0.1,0.8-0.2
	c0.2-0.1,0.2-0.3,0.2-0.5s-0.1-0.3-0.2-0.4c-0.1-0.1-0.4-0.1-0.8-0.2c-0.5-0.1-0.9-0.2-1.1-0.3c-0.2-0.1-0.4-0.2-0.5-0.4
	c-0.1-0.2-0.2-0.4-0.2-0.6c0-0.2,0-0.4,0.1-0.5c0.1-0.2,0.2-0.3,0.4-0.4c0.1-0.1,0.3-0.1,0.5-0.2c0.2-0.1,0.4-0.1,0.7-0.1
	c0.4,0,0.7,0.1,0.9,0.1c0.3,0.1,0.5,0.2,0.6,0.4c0.1,0.2,0.2,0.4,0.2,0.6l-0.7,0.1c0-0.2-0.1-0.4-0.3-0.5c-0.2-0.1-0.4-0.2-0.7-0.2
	c-0.3,0-0.6,0-0.7,0.1c-0.1,0.1-0.2,0.2-0.2,0.4c0,0.1,0,0.2,0.1,0.2c0,0.1,0.1,0.1,0.3,0.2c0.1,0,0.3,0.1,0.7,0.2
	c0.5,0.1,0.9,0.2,1.1,0.3c0.2,0.1,0.4,0.2,0.5,0.4c0.1,0.1,0.2,0.4,0.2,0.6c0,0.2-0.1,0.5-0.2,0.7c-0.1,0.2-0.4,0.4-0.6,0.5
	c-0.3,0.1-0.6,0.1-1,0.1c-0.6,0-1-0.1-1.3-0.3C404.1,493.8,404,493.5,403.9,493.1z"/>
<path id="_x32_1" class="st45" d="M410.2,493.7l0.1,0.6c-0.2,0-0.4,0-0.6,0c-0.3,0-0.5,0-0.6-0.1c-0.1-0.1-0.2-0.2-0.3-0.3
	c-0.1-0.1-0.1-0.4-0.1-0.8v-2.4h-0.6v-0.5h0.6v-1l0.8-0.4v1.5h0.7v0.5h-0.7v2.4c0,0.2,0,0.3,0,0.4c0,0,0.1,0.1,0.1,0.1
	c0,0,0.1,0,0.2,0C409.9,493.7,410,493.7,410.2,493.7z"/>
<path id="_x32_2" class="st45" d="M413.9,493.8c-0.3,0.2-0.5,0.4-0.8,0.5c-0.2,0.1-0.5,0.1-0.8,0.1c-0.5,0-0.9-0.1-1.2-0.3
	c-0.2-0.2-0.4-0.5-0.4-0.9c0-0.2,0.1-0.4,0.1-0.6c0.1-0.1,0.2-0.3,0.4-0.4c0.1-0.1,0.3-0.2,0.5-0.2c0.1,0,0.4-0.1,0.7-0.1
	c0.6,0,1.1-0.1,1.4-0.2c0-0.1,0-0.2,0-0.2c0-0.3-0.1-0.5-0.2-0.6c-0.2-0.2-0.5-0.2-0.9-0.2c-0.4,0-0.6,0-0.8,0.2
	c-0.2,0.1-0.3,0.3-0.4,0.6l-0.7-0.1c0.1-0.3,0.2-0.5,0.3-0.7c0.2-0.2,0.4-0.3,0.7-0.4c0.3-0.1,0.6-0.2,1-0.2s0.7,0.1,1,0.1
	c0.2,0.1,0.4,0.2,0.5,0.3c0.1,0.1,0.2,0.3,0.2,0.5c0,0.1,0,0.4,0,0.7v0.9c0,0.6,0,1.1,0,1.2c0,0.2,0.1,0.3,0.2,0.5H414
	C413.9,494.2,413.9,494,413.9,493.8z M413.8,492.2c-0.3,0.1-0.7,0.2-1.2,0.3c-0.3,0-0.6,0.1-0.7,0.1c-0.1,0-0.2,0.1-0.3,0.2
	c-0.1,0.1-0.1,0.2-0.1,0.3c0,0.2,0.1,0.4,0.2,0.5c0.1,0.1,0.4,0.2,0.7,0.2c0.3,0,0.5-0.1,0.8-0.2c0.2-0.1,0.4-0.3,0.5-0.5
	c0.1-0.1,0.1-0.4,0.1-0.7V492.2z"/>
<path id="_x32_3" class="st45" d="M415.8,494.3v-4.2h0.7v0.6c0.3-0.4,0.8-0.7,1.4-0.7c0.3,0,0.5,0.1,0.7,0.1
	c0.2,0.1,0.4,0.2,0.5,0.4c0.1,0.1,0.2,0.3,0.2,0.5c0,0.1,0,0.4,0,0.7v2.6h-0.8v-2.5c0-0.3,0-0.5-0.1-0.6c-0.1-0.1-0.2-0.3-0.3-0.4
	c-0.1-0.1-0.3-0.1-0.5-0.1c-0.3,0-0.6,0.1-0.9,0.3c-0.2,0.2-0.4,0.5-0.4,1.1v2.3H415.8z"/>
<path id="_x32_4" class="st45" d="M423.5,494.3v-0.5c-0.3,0.4-0.7,0.6-1.3,0.6c-0.4,0-0.7-0.1-1-0.2c-0.3-0.2-0.5-0.5-0.7-0.8
	c-0.2-0.3-0.2-0.7-0.2-1.1c0-0.4,0.1-0.8,0.2-1.1c0.1-0.4,0.4-0.6,0.7-0.8c0.3-0.2,0.6-0.3,1-0.3c0.3,0,0.5,0.1,0.7,0.2
	c0.2,0.1,0.4,0.2,0.5,0.4v-2.1h0.8v5.7H423.5z M421.1,492.2c0,0.5,0.1,0.9,0.4,1.2c0.2,0.2,0.5,0.4,0.9,0.4c0.4,0,0.6-0.1,0.9-0.4
	c0.2-0.3,0.4-0.6,0.4-1.2c0-0.6-0.1-1-0.4-1.2c-0.2-0.2-0.5-0.4-0.9-0.4c-0.3,0-0.6,0.1-0.9,0.4
	C421.2,491.3,421.1,491.7,421.1,492.2z"/>
<path id="_x32_5" class="st45" d="M425.4,489.4v-0.8h0.8v0.8H425.4z M425.4,494.3v-4.2h0.8v4.2H425.4z"/>
<path id="_x32_6" class="st45" d="M427.4,494.3v-4.2h0.7v0.6c0.3-0.4,0.8-0.7,1.4-0.7c0.3,0,0.5,0.1,0.7,0.1
	c0.2,0.1,0.4,0.2,0.5,0.4c0.1,0.1,0.2,0.3,0.2,0.5c0,0.1,0,0.4,0,0.7v2.6h-0.7v-2.5c0-0.3,0-0.5-0.1-0.6c0-0.1-0.1-0.3-0.3-0.4
	c-0.2-0.1-0.4-0.1-0.5-0.1c-0.4,0-0.6,0.1-0.9,0.3c-0.2,0.2-0.4,0.5-0.4,1.1v2.3H427.4z"/>
<path id="_x32_7" class="st45" d="M432.1,494.7l0.7,0.1c0,0.2,0.1,0.4,0.3,0.5c0.2,0.1,0.4,0.2,0.8,0.2s0.6-0.1,0.8-0.2
	c0.2-0.1,0.3-0.3,0.4-0.5c0-0.1,0-0.5,0-0.9c-0.3,0.4-0.7,0.5-1.2,0.5c-0.6,0-1.1-0.2-1.4-0.6c-0.4-0.4-0.5-0.9-0.5-1.5
	c0-0.4,0.1-0.8,0.2-1.1c0.1-0.4,0.4-0.6,0.7-0.8c0.3-0.2,0.6-0.3,1-0.3c0.5,0,1,0.2,1.3,0.6v-0.5h0.7v3.6c0,0.6-0.1,1.1-0.2,1.4
	c-0.1,0.2-0.4,0.5-0.7,0.6c-0.3,0.1-0.7,0.2-1.1,0.2c-0.5,0-1-0.1-1.3-0.3C432.2,495.4,432,495.1,432.1,494.7z M432.7,492.1
	c0,0.6,0.1,1,0.4,1.2c0.2,0.2,0.5,0.4,0.9,0.4s0.6-0.1,0.9-0.4c0.2-0.2,0.4-0.6,0.4-1.2c0-0.5-0.1-0.9-0.4-1.1
	c-0.2-0.3-0.6-0.4-0.9-0.4c-0.4,0-0.6,0.1-0.9,0.4C432.8,491.3,432.7,491.6,432.7,492.1z"/>
<line class="st41" x1="251.9" y1="546.6" x2="251.9" y2="373.7"/>
<line class="st41" x1="238.1" y1="373.7" x2="251.5" y2="373.7"/>
<circle class="st39" cx="266.2" cy="546.4" r="6.7"/>
<text transform="matrix(1 0 0 1 261.3763 551.173)" class="st42 st43 st44">4</text>
</svg>
